<svg xmlns="http://www.w3.org/2000/svg" xmlns:xlink="http://www.w3.org/1999/xlink" width="536" height="359" viewBox="0 0 536 359"><defs><style>.a{fill:#fff;stroke:#707070;}.b{clip-rule:evenodd;}.c{clip-path:url(#a);}.d,.e{fill:#08243b;}.d,.e,.i,.j,.l,.m,.n,.o,.q,.r,.s,.t{fill-rule:evenodd;}.e{stroke:#08243b;stroke-width:0.632px;}.e,.q{stroke-miterlimit:22.926;}.f,.o{fill:#5786ed;}.g{fill:#2950af;}.h,.r{fill:#f7f5f6;}.i{fill:rgba(8,36,59,0.4);}.j{fill:#0d346b;}.k{clip-path:url(#b);}.l{fill:rgba(29,29,27,0.4);}.m,.q{fill:none;}.n{fill:#4c75cf;}.p{fill:#cfa434;}.q{stroke:#f7f5f6;stroke-width:1.115px;}.s{fill:#ef5d5d;}.t{fill:#826007;}</style><clipPath id="a"><rect class="a" width="536" height="359" transform="translate(1031.929 -0.3)"/></clipPath><clipPath id="b"><path class="b" d="M153.174,149.925a210.32,210.32,0,0,0,4.93,26.7c9.523,37.755,51.266,115.743,91.521,124.957,41.443,9.487,91.175,6.962,117.668-30.718,24.63-35.028,42.845-75.117,50.24-117.353,1.042-5.952,1.14-6.767-7.774-10.626s-26.839-10.766-71.253-11.866-115.317,3.6-150.758,6.457-35.417,3.857-35.363,4.947S152.526,144.692,153.174,149.925Z" transform="translate(-152.382 -130.858)"/></clipPath></defs><g class="c" transform="translate(-1031.929 0.3)"><g transform="translate(1098.359 0.093)"><path class="d" d="M57.187,237.767C-97.222,128.187,97.338-22.525,227.919,41.847c17.619,8.685,36.85,22.085,50.724,49.237s22.388,68.056,31.284,98.7,22.576,49.9,10.51,64.4c-55.415,66.55-211.461,20.336-263.249-16.417Z" transform="translate(-0.067 -6.794)"/><path class="e" d="M293,25.515c5.866-4.082,14.594-9.995,22.007-13.7a52.893,52.893,0,0,1,19.568-5.772A54.539,54.539,0,0,1,351.986,7.12a36.951,36.951,0,0,1,13.655,6.147c3.613,2.722,6.147,6.007,8.071,12.576s3.238,16.423-3.332,24.025-21.022,12.951-37.4,14.547-34.677-.563-43.64-6.241-8.587-14.875-6.9-20.6S287.136,29.6,293,25.515Z" transform="translate(-72.446 -1.489)"/><path class="d" d="M241.764,107.691c112.443,0,203.6,62.394,203.6,139.358s-91.153,139.358-203.6,139.358-203.6-62.394-203.6-139.358,91.153-139.358,203.6-139.358Z" transform="translate(-9.823 -27.716)"/><ellipse class="f" cx="190.959" cy="133.796" rx="190.959" ry="133.796" transform="translate(54.292 77.575)"/><ellipse class="g" cx="190.959" cy="128.969" rx="190.959" ry="128.969" transform="translate(54.292 77.575)"/><ellipse class="h" cx="111.526" cy="78.141" rx="111.526" ry="78.141" transform="translate(133.726 133.23)"/><path class="i" d="M56.928,237.471C-97.48,127.891,97.079-22.82,227.661,41.551c17.619,8.685,36.85,22.085,50.724,49.237s22.388,68.056,31.284,98.7,22.576,49.9,10.51,64.4C264.763,320.437,108.717,274.224,56.928,237.471Z" transform="translate(0 -6.718)"/><path class="j" d="M153.174,149.925a210.32,210.32,0,0,0,4.93,26.7c9.523,37.755,51.266,115.743,91.521,124.957,41.443,9.487,91.175,6.962,117.668-30.718,24.63-35.028,42.845-75.117,50.24-117.353,1.042-5.952,1.14-6.767-7.774-10.626s-26.839-10.766-71.253-11.866-115.317,3.6-150.758,6.457-35.417,3.857-35.363,4.947S152.526,144.692,153.174,149.925Z" transform="translate(-39.218 -33.678)"/><g class="k" transform="translate(113.164 97.18)"><g transform="translate(-7.912 6.434)"><path class="l" d="M230.023,229.818a127.483,127.483,0,0,0,11.294,27.491,197.315,197.315,0,0,0,20.23,30.035,59.774,59.774,0,0,0,16.507,14.149c5.585,3.413,12.163,7.012,14.956,9.184s1.8,2.917-7.261,2.979-26.188-.558-41.019-4.84-27.367-12.225-42.2-26.312-31.959-34.317-42.571-50.824-14.707-29.29-16.755-43.439-2.048-29.663.5-38.6,7.633-11.294,16.321-9.619,20.975,7.385,31.648,16.135a114.9,114.9,0,0,1,25.505,30.656,82.253,82.253,0,0,1,9.556,25.008c1.3,6.454,1.427,10.922,3.289,18Z" transform="translate(-141.728 -139.522)"/></g></g><path class="m" d="M153.174,149.925a210.32,210.32,0,0,0,4.93,26.7c9.523,37.755,51.266,115.743,91.521,124.957,41.443,9.487,91.175,6.962,117.668-30.718,24.63-35.028,42.845-75.117,50.24-117.353,1.042-5.952,1.14-6.767-7.774-10.626s-26.839-10.766-71.253-11.866-115.317,3.6-150.758,6.457-35.417,3.857-35.363,4.947S152.526,144.692,153.174,149.925Z" transform="translate(-39.218 -33.678)"/><ellipse class="g" cx="122.817" cy="85.522" rx="122.817" ry="85.522" transform="translate(123.66 20.115)"/><path class="d" d="M485.648,74.99a18.094,18.094,0,0,0,2.433,5.867,31.168,31.168,0,0,0,4.934,6.36,11.142,11.142,0,0,0,5.413,3.213c1.574.227,2.747-.52,5.812-5.807s8.023-15.114,11.313-22.6,4.912-12.637,5.617-17.2a29.842,29.842,0,0,0-.247-11.515c-.741-2.963-2.01-4.9-4.285-6.189a17.538,17.538,0,0,0-8.711-1.834,21.255,21.255,0,0,0-7.955,1.744c-1.765.845-2.263,1.723-1.883,2.837s1.637,2.463,2.174,4.87.353,5.872-.828,10.027a71.08,71.08,0,0,1-5.765,13.462c-2.407,4.462-5.045,8.54-6.517,11.207s-1.78,3.921-1.507,5.562Z" transform="translate(-124.966 -6.504)"/><path class="n" d="M456.542,43.332c5.413-6.1,10.826-12.193,15.946-16.883a60.279,60.279,0,0,1,14.162-10c4.217-2.028,7.826-2.8,11.151-2.534a14.808,14.808,0,0,1,8.556,3.487,15.986,15.986,0,0,1,4.4,7.076,20.114,20.114,0,0,1,.983,8.565,81.877,81.877,0,0,1-2.282,11.4c1.2-4.869,2.634-10.633,2.929-14.425a17.987,17.987,0,0,0-1.388-9c-1.074-2.494-2.615-4.765-6.468-7.867a97.637,97.637,0,0,0-14.9-9.529C484.744,1.118,481.135.063,477.242,0a29.305,29.305,0,0,0-13.017,3.183,79.525,79.525,0,0,0-16.107,10.481,207.6,207.6,0,0,0-15.773,15.017,3.629,3.629,0,0,0,.342,4.471c1.506,2.01,5.1,4.8,8.265,6.946a39.664,39.664,0,0,0,8.1,4.452,8.508,8.508,0,0,0,5.021.592,4.978,4.978,0,0,0,2.468-1.814Z" transform="translate(-111.113 0)"/><path class="j" d="M496.7,92.553A96.688,96.688,0,0,0,503.529,81.7a200.021,200.021,0,0,0,10.92-22.8,83.938,83.938,0,0,0,5.191-19.626c.568-4.765.162-7.4-.71-10a15.989,15.989,0,0,0-4.4-7.076,14.809,14.809,0,0,0-8.556-3.487c-3.325-.264-6.934.507-11.151,2.534a60.289,60.289,0,0,0-14.162,10c-5.119,4.691-10.533,10.787-15.946,16.883-.586.513-1.172,1.026-1.222,1.644a2.951,2.951,0,0,0,.961,1.916,6.018,6.018,0,0,0,1.707,1.315,2.819,2.819,0,0,0,1.892.381,4.227,4.227,0,0,0,1.68-1.163c4.792-5.326,9.585-10.653,13.779-14.779a62.507,62.507,0,0,1,11.053-9.028,19.565,19.565,0,0,1,8.957-3.156,10.025,10.025,0,0,1,7.441,2.38,13.025,13.025,0,0,1,3.967,8.375c.388,3.579-.353,7.775-2.521,14a197.414,197.414,0,0,1-8.96,20.88c-3.2,6.4-5.989,10.961-8.783,15.519a9.5,9.5,0,0,0-1.539,2.216,2.7,2.7,0,0,0,0,1.792,8.622,8.622,0,0,0,.534,1.472,5.028,5.028,0,0,0,.705,1.111.833.833,0,0,0,.883.365,5.581,5.581,0,0,0,1.453-.823Z" transform="translate(-119.286 -4.804)"/><path class="o" d="M285.661,17.153c73.68,0,133.408,41.6,133.408,92.912s-59.729,92.912-133.408,92.912-133.408-41.6-133.408-92.912,59.729-92.912,133.408-92.912Zm0,7.376c67.83,0,122.817,38.3,122.817,85.536S353.491,195.6,285.661,195.6s-122.817-38.3-122.817-85.536,54.987-85.536,122.817-85.536Z" transform="translate(-39.185 -4.414)"/><ellipse class="p" cx="118.318" cy="81.09" rx="118.318" ry="81.09" transform="translate(127.071 29.079)"/><path class="q" d="M179.424,189.831a1.979,1.979,0,0,0-.673-1.1c-.369-.237-.956-.279-2.767.349a23.533,23.533,0,0,0-6.318,3.179c-1.47,1.253-1.374,2.462-1.326,13.619s.048,32.263.048,53.369" transform="translate(-43.319 -48.532)"/><path class="r" d="M139.436,234.607l43.036,29.929v33.988l-16.827,11.783-26.209-17.58Z" transform="translate(-35.886 -60.38)"/><path class="s" d="M144.88,253.181l34.951,24.472v10.461L144.88,263.641Z" transform="translate(-37.287 -65.16)"/><path class="s" d="M144.88,282.28l17.475,12.248v10.449L144.88,292.74Z" transform="translate(-37.287 -72.649)"/><path class="t" d="M289.426,39.157c65.347,0,118.318,36.282,118.318,81.039s-52.971,81.039-118.318,81.039S171.108,164.953,171.108,120.2s52.971-81.039,118.318-81.039Zm.541,6.59c61.892,0,112.063,34.807,112.063,77.744s-50.171,77.744-112.063,77.744S177.9,166.427,177.9,123.491s50.171-77.744,112.063-77.744Z" transform="translate(-44.037 -10.077)"/></g></g></svg>