<svg xmlns="http://www.w3.org/2000/svg" xmlns:xlink="http://www.w3.org/1999/xlink" width="1658" height="746" viewBox="0 0 1658 746"><defs><style>.a,.r{fill:#fff;}.b{clip-rule:evenodd;}.c{clip-path:url(#a);}.d{fill:#ef5d5d;}.d,.f,.g,.h,.i,.j,.k,.l,.m,.n,.o,.r,.s,.t{fill-rule:evenodd;}.e{clip-path:url(#b);}.f{fill:#bf4b4b;}.g,.o,.p,.q{fill:none;}.h{fill:#642626;}.i{fill:#4db45e;}.j{fill:#e6dfdf;}.k{fill:#d6d6d6;}.l{fill:#989898;}.m{fill:#e3e3e3;}.n{fill:#bab7b7;}.o,.p{stroke:#fff;}.o,.p,.q{stroke-miterlimit:22.926;stroke-width:0.859px;}.q{stroke:#000;}.s{fill:#1d1d1b;}.t{fill:#fcba25;}</style><clipPath id="a"><rect class="a" width="1658" height="746" transform="translate(0)"/></clipPath><clipPath id="b"><path class="b" d="M1084.271,628.471c-115.843,46.645-246.255,68.715-381.875,59.1C295.155,658.714-10.27,355.1.265,0H1084.271V628.471ZM749.335,246.753C859.787,262.9,938.076,352.94,924.2,447.859S809.532,606.635,699.081,590.487,510.34,484.3,524.217,389.381,638.883,230.6,749.335,246.753Z" transform="translate(0 0)"/></clipPath></defs><g class="c" transform="translate(0)"><g transform="translate(573.729 0)"><path class="d" d="M1084.271,628.471c-115.843,46.645-246.255,68.715-381.875,59.1C295.155,658.714-10.27,355.1.265,0H1084.271V628.471ZM749.335,246.753C859.787,262.9,938.076,352.94,924.2,447.859S809.532,606.635,699.081,590.487,510.34,484.3,524.217,389.381,638.883,230.6,749.335,246.753Z" transform="translate(0 0)"/><g class="e" transform="translate(0 0)"><g transform="translate(492.912 -129.356)"><path class="f" d="M759.585-96.627c3.607,49.82,7.213,99.64,16.343,127.255,18.953,57.328,102.493,67.945,131.125,120.656,19.829,36.5-2.857,82.48-10.541,96.512C805.533,413.952,659.069,387.843,647.67,504.3c-6.225,63.592,53.77,163.68-13.25,139.978C623.454,640.4,593.1,703.165,570.8,715.609c55.422,68.251,147.52,64.333,299.758,91.32s401.294,12.71,496.475-109.041,36.486-350.978-66.626-502.076,13.3-407.74-227.1-331.9S807.136-98.162,759.585-96.627Z" transform="translate(-570.803 149.797)"/></g></g><path class="g" d="M1084.271,628.471c-115.843,46.645-246.255,68.715-381.875,59.1C295.155,658.714-10.27,355.1.265,0H1084.271V628.471ZM749.335,246.753C859.787,262.9,938.076,352.94,924.2,447.859S809.532,606.635,699.081,590.487,510.34,484.3,524.217,389.381,638.883,230.6,749.335,246.753Z" transform="translate(0 0)"/><path class="h" d="M831.921,285.35c110.452,16.148,188.741,106.187,174.863,201.106S892.118,645.232,781.667,629.084,592.925,522.9,606.8,427.978,721.469,269.2,831.921,285.35Z" transform="translate(-82.586 -38.598)"/><path class="i" d="M817.6,548.143a104.011,104.011,0,0,1,4.668-9.906c1.572-2.745,2.717-3.708,4.426-4.2a11.158,11.158,0,0,1,6.471.309c2.49.818,5.2,2.472,9.9,5.6s11.388,7.725,15.441,11.074,5.468,5.449,6.232,8.24.874,6.275.9,11.334-.027,11.695-.3,14.985-.774,3.235-8.9-2.585-23.887-17.4-31.876-23.485-8.211-6.663-8.226-7.325S816.5,550.779,817.6,548.143Z" transform="translate(-111.394 -72.827)"/><path class="j" d="M851.584,527.226c-.968,1.847-2.52,5.569-3.324,7.63s-.858,2.459.232,5.048,3.327,7.368,4.465,9.649,1.178,2.063,1.506,1.7.947-.868,1.686-5.123,1.6-12.261,2.03-16.36.431-4.291-.452-4.361-2.647-.02-3.721-.009-1.456-.02-2.424,1.826Z" transform="translate(-115.671 -71.691)"/><path class="k" d="M853.266,549.888c.02.109.172-.048.8.113a3.75,3.75,0,0,0,3.236-.193,19.881,19.881,0,0,0,4.354-4.107c.945-1.134.929-1.26.961-2.2a18.854,18.854,0,0,1,.419-3.793c.308-1.1.845-1.541,1.98-2.278s2.867-1.769,3.792-2.344,1.041-.693.823-1.695a17.259,17.259,0,0,0-1.657-4.443,6.857,6.857,0,0,0-3.738-3.329,12.737,12.737,0,0,0-4.765-.29c-1.075.094-1.169.126-1.234.508s-.1,1.117-.888,5.041-2.333,11.041-3.162,14.785-.942,4.117-.923,4.226Z" transform="translate(-116.435 -71.672)"/><path class="l" d="M659.453,590.035v78.24l77.9-83.793v-78.24Z" transform="translate(-89.988 -69.081)"/><path class="m" d="M962.045,654.984v78.206L749.668,584.481v-78.24Z" transform="translate(-102.299 -69.081)"/><path class="n" d="M869.256,827.545l80.478-81.992L737.357,596.845l-77.9,83.794Z" transform="translate(-89.988 -81.445)"/><path class="o" d="M666.929,337.27l71.449,142.112-30.572-169.97" transform="translate(-91.008 -42.222)"/><path class="o" d="M769.684,287.926,749.668,475.758l67.347-192.9" transform="translate(-102.299 -38.598)"/><path class="o" d="M870.013,289.714,749.668,476.694,926.52,310.647" transform="translate(-102.299 -39.534)"/><line class="p" x1="5.856" y2="252.838" transform="translate(859.746 299.8)"/><line class="p" y1="210.7" x2="33.421" transform="translate(865.132 337.759)"/><line class="p" y1="105.547" x2="43.66" transform="translate(882.126 427.292)"/><line class="p" y1="164.782" x2="45.388" transform="translate(872.471 377.43)"/><path class="o" d="M661.953,341.673,655.5,567.578,630.463,379.611" transform="translate(-86.032 -46.624)"/><path class="o" d="M610.987,428.7l41.161,150.758-46.231-96.136" transform="translate(-82.683 -58.499)"/><line class="q" x1="38.208" y1="59.079" transform="translate(531.256 461.875)"/><path class="r" d="M851.594,525.344c1.19,1.024,2.86,2.894,3.823,3.857s1.217,1.017,2.834,1.013,4.6-.066,6.121-.089,1.586-.007,2.02.388a19.341,19.341,0,0,0,1.816,1.556c.577.387.924.387,1.1-.308a14.925,14.925,0,0,0,.163-2.936,4.827,4.827,0,0,1,.061-1.425c.092-.26.3-.465.319-.672s-.144-.412-.165-.625a3.336,3.336,0,0,1,.3-1.019c.2-.587.473-1.541.756-2.645s.576-2.357.732-3.245.178-1.41.282-1.859a3.164,3.164,0,0,0,.157-1.6,9.171,9.171,0,0,0-1.4-3.165,10.93,10.93,0,0,0-3.248-3.28,6.909,6.909,0,0,0-4.5-.888,11.536,11.536,0,0,0-5.379,1.984,20.278,20.278,0,0,0-3.426,3.844,9.224,9.224,0,0,1-2.59,2.2c-.731.407-1.274.554-1.818.877a2.937,2.937,0,0,0-1.368,1.744,7.292,7.292,0,0,0-.125,3.144,2.158,2.158,0,0,0,1.1,1.634,9.665,9.665,0,0,1,2.442,1.509Z" transform="translate(-115.709 -69.369)"/><path class="s" d="M847.433,530.884c-.2-1.4-.435-4.352-.717-5.93s-.617-1.787-.815-2.916a17.826,17.826,0,0,1,.052-5.215,11.9,11.9,0,0,1,2.508-5.9,13.447,13.447,0,0,1,6.647-4.3,39.582,39.582,0,0,1,8.1-.91c1.955-.146,2.54-.48,2.832-.773s.293-.544.993-.314a8.129,8.129,0,0,1,3.156,2.111,10.519,10.519,0,0,1,2.184,4.493,16.119,16.119,0,0,1,.45,4.766,4.91,4.91,0,0,1-.719,2.567c-.311.373-.621.24-.729-.136a4.747,4.747,0,0,1,.06-1.572,6.622,6.622,0,0,0,.06-1.65,4.438,4.438,0,0,0-1.025-2.163,23.151,23.151,0,0,0-3.264-3.623,4.327,4.327,0,0,0-3.509-1.158,15.917,15.917,0,0,0-5.224,1.311,5.972,5.972,0,0,0-3.212,3.047,11.057,11.057,0,0,0-.562,3.834c-.029.965-.092,1.321-.437,1.5a2.918,2.918,0,0,1-1.39.136,1.033,1.033,0,0,1-.893-.495c-.266-.369-.589-1.023-.989-1.239s-.877.009-1.322.278a5.218,5.218,0,0,0-1.152.908,2.309,2.309,0,0,0-.57,1.352,8.05,8.05,0,0,0,.014,2.536,2.806,2.806,0,0,0,1.121,1.791,11.93,11.93,0,0,1,1.721,1.2c.3.4.089.835-.3,1.694s-.945,2.136-1.392,3.189-.781,1.879-1.038,2.362-.436.621-.641-.784Z" transform="translate(-115.408 -68.848)"/><path class="t" d="M846.088,541.609c.951,3.021,3.055,8.729,4.149,11.624s1.177,2.979,1.87,2.256a24.714,24.714,0,0,0,2.573-3.2c.578-.942.432-1.3-.81-3.858s-3.579-7.325-4.815-9.759-1.37-2.537-1.772-2.275a9.954,9.954,0,0,0-1.507,1.371c-.436.481-.637.815.314,3.836Z" transform="translate(-115.363 -73.183)"/><path class="t" d="M856.412,554.311c.322,1.038,1.135,2.94,1.56,3.873s.461.9,1.351-.471a38.147,38.147,0,0,0,3.38-6.031,7.525,7.525,0,0,0,.408-4.035c-.078-.856.022-1.35-.828-.649s-2.652,2.6-3.785,3.785-1.6,1.665-1.918,1.99-.489.5-.168,1.538Z" transform="translate(-116.841 -74.597)"/></g></g></svg>