<svg xmlns="http://www.w3.org/2000/svg" xmlns:xlink="http://www.w3.org/1999/xlink" width="414" height="327" viewBox="0 0 414 327"><defs><style>.a,.r{fill:#fff;}.b{clip-rule:evenodd;}.c{clip-path:url(#a);}.d{fill:#ef5d5d;}.d,.f,.g,.h,.i,.j,.k,.l,.m,.n,.o,.r,.s,.t{fill-rule:evenodd;}.e{clip-path:url(#b);}.f{fill:#bf4b4b;}.g,.o,.p,.q{fill:none;}.h{fill:#642626;}.i{fill:#4db45e;}.j{fill:#e6dfdf;}.k{fill:#d6d6d6;}.l{fill:#a09f9f;}.m{fill:#e3e3e3;}.n{fill:#bab7b7;}.o,.p{stroke:#fff;}.o,.p,.q{stroke-miterlimit:22.926;stroke-width:0.859px;}.q{stroke:#000;}.s{fill:#1d1d1b;}.t{fill:#fcba25;}</style><clipPath id="a"><rect class="a" width="414" height="327" transform="translate(313.861 0.354)"/></clipPath><clipPath id="b"><path class="b" d="M476.023,275.915A377.437,377.437,0,0,1,308.37,301.863C129.58,289.192-4.509,155.9.116,0H476.022V275.915ZM328.977,108.331c48.491,7.089,82.862,46.619,76.769,88.291s-50.341,69.707-98.832,62.617-82.862-46.619-76.77-88.291S280.486,101.241,328.977,108.331Z" transform="translate(0 0)"/></clipPath></defs><g class="c" transform="translate(-313.861 -0.354)"><g transform="translate(251.838 -0.227)"><path class="d" d="M476.023,275.915A377.437,377.437,0,0,1,308.37,301.863C129.58,289.192-4.509,155.9.116,0H476.022V275.915ZM328.977,108.331c48.491,7.089,82.862,46.619,76.769,88.291s-50.341,69.707-98.832,62.617-82.862-46.619-76.77-88.291S280.486,101.241,328.977,108.331Z" transform="translate(0 0)"/><g class="e" transform="translate(0 0)"><g transform="translate(216.401 -56.791)"><path class="f" d="M653.683-126.454c1.584,21.872,3.167,43.744,7.175,55.868,8.321,25.169,45,29.83,57.568,52.971,8.705,16.026-1.255,36.211-4.628,42.371C673.856,97.7,609.554,86.241,604.549,137.368c-2.733,27.918,23.606,71.86-5.817,61.454-4.814-1.7-18.141,25.853-27.929,31.316,24.332,29.964,64.765,28.244,131.6,40.092s176.178,5.58,217.965-47.872S936.388,68.27,891.119,1.934s5.839-179.008-99.7-145.711-116.859,16.649-137.735,17.323Z" transform="translate(-570.803 149.797)"/></g></g><path class="g" d="M476.023,275.915A377.437,377.437,0,0,1,308.37,301.863C129.58,289.192-4.509,155.9.116,0H476.022V275.915ZM328.977,108.331c48.491,7.089,82.862,46.619,76.769,88.291s-50.341,69.707-98.832,62.617-82.862-46.619-76.77-88.291S280.486,101.241,328.977,108.331Z" transform="translate(0 0)"/><path class="h" d="M704.741,283.95c48.491,7.089,82.862,46.619,76.769,88.291s-50.341,69.707-98.832,62.617-82.862-46.619-76.77-88.291S656.25,276.86,704.741,283.95Z" transform="translate(-375.764 -175.619)"/><path class="i" d="M816.883,540.039a45.681,45.681,0,0,1,2.049-4.349c.69-1.2,1.193-1.628,1.943-1.843a4.9,4.9,0,0,1,2.841.136,19.777,19.777,0,0,1,4.345,2.458c2.063,1.373,5,3.392,6.779,4.862s2.4,2.392,2.736,3.618a20.354,20.354,0,0,1,.4,4.976c.012,2.221-.012,5.134-.134,6.579s-.34,1.42-3.908-1.135-10.487-7.64-13.995-10.311-3.6-2.925-3.611-3.216A4.822,4.822,0,0,1,816.883,540.039Z" transform="translate(-506.842 -331.363)"/><path class="j" d="M849.385,526.185c-.425.811-1.106,2.445-1.459,3.35a2.14,2.14,0,0,0,.1,2.216c.479,1.136,1.461,3.235,1.96,4.236s.517.906.661.747.416-.381.74-2.249.7-5.383.891-7.183.189-1.884-.2-1.915-1.162-.009-1.634,0-.639-.009-1.064.8Z" transform="translate(-526.301 -326.194)"/><path class="k" d="M853.265,536.057c.009.048.076-.021.351.05a1.646,1.646,0,0,0,1.421-.085,8.732,8.732,0,0,0,1.912-1.8c.415-.5.408-.553.422-.966a8.282,8.282,0,0,1,.184-1.665c.135-.482.371-.677.869-1s1.259-.777,1.665-1.029.457-.3.361-.744a7.574,7.574,0,0,0-.727-1.951,3.011,3.011,0,0,0-1.641-1.462,5.592,5.592,0,0,0-2.092-.127c-.472.041-.513.055-.542.223s-.043.49-.39,2.213-1.024,4.847-1.388,6.491-.414,1.807-.405,1.855Z" transform="translate(-529.778 -326.108)"/><path class="l" d="M659.453,543.029v34.349l34.2-36.787V506.241Z" transform="translate(-409.443 -314.317)"/><path class="m" d="M842.907,571.543v34.334l-93.239-65.286V506.241Z" transform="translate(-465.456 -314.317)"/><path class="n" d="M751.562,698.128l35.332-36-93.239-65.286-34.2,36.787Z" transform="translate(-409.443 -370.571)"/><path class="o" d="M666.929,321.642,698.3,384.033l-13.422-74.621" transform="translate(-414.085 -192.109)"/><path class="o" d="M758.455,285.08l-8.787,82.463,29.567-84.69" transform="translate(-465.456 -175.619)"/><path class="o" d="M802.5,289.714,749.668,371.8l77.642-72.9" transform="translate(-465.456 -179.878)"/><line class="p" x1="2.571" y2="111.002" transform="translate(377.45 131.62)"/><line class="p" y1="92.503" x2="14.673" transform="translate(379.815 148.285)"/><line class="p" y1="46.338" x2="19.168" transform="translate(387.276 187.592)"/><line class="p" y1="72.344" x2="19.926" transform="translate(383.037 165.701)"/><path class="o" d="M644.288,341.673l-2.834,99.178-10.991-82.522" transform="translate(-391.444 -212.139)"/><path class="o" d="M608.143,428.7l18.071,66.186-20.3-42.206" transform="translate(-376.204 -266.17)"/><line class="q" x1="16.774" y1="25.937" transform="translate(233.235 202.775)"/><path class="r" d="M849.546,515.81c.522.449,1.256,1.271,1.678,1.693s.534.447,1.244.445,2.019-.029,2.687-.039.7,0,.887.17a8.5,8.5,0,0,0,.8.683c.253.17.406.17.482-.135a6.554,6.554,0,0,0,.072-1.289,2.116,2.116,0,0,1,.027-.625c.04-.114.131-.2.14-.295s-.063-.181-.072-.274a1.463,1.463,0,0,1,.133-.448c.087-.258.208-.677.332-1.161s.253-1.035.322-1.425.078-.619.124-.816a1.388,1.388,0,0,0,.069-.7,4.024,4.024,0,0,0-.615-1.389,4.8,4.8,0,0,0-1.426-1.44,3.033,3.033,0,0,0-1.977-.39,5.063,5.063,0,0,0-2.361.871,8.907,8.907,0,0,0-1.5,1.688,4.047,4.047,0,0,1-1.137.968c-.321.179-.559.243-.8.385a1.289,1.289,0,0,0-.6.766,3.2,3.2,0,0,0-.055,1.381.947.947,0,0,0,.481.717,4.241,4.241,0,0,1,1.072.662Z" transform="translate(-526.474 -315.626)"/><path class="s" d="M846.48,516.1c-.09-.616-.191-1.91-.315-2.6s-.271-.784-.358-1.28a7.823,7.823,0,0,1,.023-2.29,5.223,5.223,0,0,1,1.1-2.592,5.9,5.9,0,0,1,2.918-1.886,17.37,17.37,0,0,1,3.556-.4c.858-.064,1.115-.211,1.244-.339s.129-.239.436-.138a3.569,3.569,0,0,1,1.386.927,4.617,4.617,0,0,1,.959,1.973,7.076,7.076,0,0,1,.2,2.092,2.155,2.155,0,0,1-.316,1.127c-.137.164-.273.105-.32-.06a2.08,2.08,0,0,1,.026-.69,2.908,2.908,0,0,0,.026-.724,1.948,1.948,0,0,0-.45-.95,10.154,10.154,0,0,0-1.433-1.591,1.9,1.9,0,0,0-1.541-.508,6.99,6.99,0,0,0-2.293.576,2.621,2.621,0,0,0-1.41,1.338,4.853,4.853,0,0,0-.247,1.683c-.013.424-.04.58-.192.658a1.281,1.281,0,0,1-.61.06.453.453,0,0,1-.392-.217c-.117-.162-.258-.449-.434-.544s-.385,0-.581.122a2.287,2.287,0,0,0-.505.4,1.014,1.014,0,0,0-.25.594,3.537,3.537,0,0,0,.006,1.113,1.232,1.232,0,0,0,.492.786,5.237,5.237,0,0,1,.756.528c.134.174.039.367-.131.743s-.415.938-.611,1.4-.343.825-.456,1.037-.191.273-.281-.344Z" transform="translate(-525.103 -313.258)"/><path class="t" d="M845.707,538.633c.418,1.326,1.341,3.832,1.821,5.1s.517,1.308.821.991a10.87,10.87,0,0,0,1.13-1.4c.254-.414.189-.57-.356-1.694s-1.571-3.216-2.114-4.284-.6-1.114-.778-1a4.367,4.367,0,0,0-.662.6c-.191.211-.28.358.138,1.684Z" transform="translate(-524.901 -332.982)"/><path class="t" d="M856.315,550.022c.141.456.5,1.291.685,1.7s.2.394.593-.207a16.74,16.74,0,0,0,1.484-2.648,3.3,3.3,0,0,0,.179-1.771c-.034-.376.01-.593-.364-.285s-1.164,1.141-1.662,1.662-.7.731-.842.874-.215.22-.073.675Z" transform="translate(-531.625 -339.415)"/></g></g></svg>