<svg xmlns="http://www.w3.org/2000/svg" width="35" height="35" viewBox="0 0 35 35"><defs><style>.a{fill:#fff;stroke:#3359cf;stroke-width:2px;}.b{fill:none;}.c{fill:#3359cf;}.d{stroke:none;}</style></defs><g class="a" transform="translate(35 35) rotate(180)"><circle class="d" cx="17.5" cy="17.5" r="17.5"/><circle class="b" cx="17.5" cy="17.5" r="16.5"/></g><g transform="translate(31.725 17.81) rotate(135)"><path class="b" d="M0,20.592H20.593V0H0Z" transform="translate(0 0)"/><path class="c" d="M1.63,4.29A2.662,2.662,0,0,0,4.29,6.95H7.722V8.58H4.29A4.29,4.29,0,0,1,4.29,0H7.722V1.63H4.29A2.662,2.662,0,0,0,1.63,4.29Zm3.518-.858h6.864V5.148H5.148ZM12.87,8.58H9.438V6.95H12.87a2.66,2.66,0,1,0,0-5.32H9.438V0H12.87a4.29,4.29,0,1,1,0,8.58Z" transform="translate(1.716 6.006)"/></g></svg>