<svg xmlns="http://www.w3.org/2000/svg" xmlns:xlink="http://www.w3.org/1999/xlink" width="544" height="358" viewBox="0 0 544 358">
  <defs>
    <clipPath id="clip-path">
      <rect id="Прямоугольник_220" data-name="Прямоугольник 220" width="544" height="358" transform="translate(960 0.238)" fill="#fff"/>
    </clipPath>
    <clipPath id="clip-path-2">
      <path id="Контур_3960" data-name="Контур 3960" d="M344.991,364.237c22.828,5.07,45.656,10.14,58.011,12.675s14.236,2.535,15.342,2.12,1.438-1.245,2.407-1.853a8.812,8.812,0,0,1,4.482-1c1.909,0,4.122.387,5.312,1.854s1.356,4.011,2.223,26.873,2.437,66.042,3.154,89.712.581,27.833.445,32c-125.1,0-238.026,0-300.576-.221s-62.549-.662-61.722-24.333,2.483-70.571,3.393-95.293,1.076-27.268,2.266-28.734,3.4-1.854,5.312-1.854a8.812,8.812,0,0,1,4.482,1c.968.609,1.3,1.438,2.407,1.853s2.988.415,15.342-2.12,35.183-7.6,58.011-12.675H344.991Z" transform="translate(-73.906 -364.237)" clip-rule="evenodd"/>
    </clipPath>
    <clipPath id="clip-path-3">
      <path id="Контур_3965" data-name="Контур 3965" d="M258.565,237.521c-1.446-5.56-1.335-12.565-2.836-23.462s-4.615-25.686-9.452-44.311-11.4-41.087-14.122-58.933-1.613-31.079,5.5-42.254,20.238-20.293,39.2-24.518,43.755-3.558,60.99,0,26.909,10.008,32.636,20.015,7.506,23.573,4.948,48.37-9.451,60.824-13.232,81.9-4.448,27.187-4.67,33.08,0,11.564-2,18.514-6.227,15.178-14.344,24.8-20.126,20.627-30.245,23.24-18.347-3.169-25.519-11.676-13.288-19.737-17.847-27.409-7.561-11.787-9.007-17.346Z" transform="translate(-230.79 -41.118)" clip-rule="evenodd"/>
    </clipPath>
    <clipPath id="clip-path-4">
      <path id="Контур_3970" data-name="Контур 3970" d="M107.268,289.745c4.546-10.1,13.686-28.887,18.264-38.566s4.6-10.246,3.669-21.912-2.8-34.43-3.612-46.576-.556-13.671.963-17.675,4.3-10.486,7.683-19.837,7.362-21.57,9.74-27.928,3.151-6.856,6.074-8.05a139.026,139.026,0,0,0,13.873-6.187c5.88-3.1,12.57-7.414,16.275-9.515s4.423-1.99,9.454-.691,14.375,3.787,18.937,5.2,4.34,1.742,3.87,2.488a8.861,8.861,0,0,1-3.068,3.1,81.728,81.728,0,0,0-10.339,6.469c-5.419,4.064-13.214,10.975-18.218,18.743a41.8,41.8,0,0,0-6.524,26.428c.691,10.035,4.285,21.48,7.132,28.584s4.948,9.869,7.077,10.809,4.285.055,8.238-3.1,9.7-8.57,15.643-12.317a46.661,46.661,0,0,1,17.181-6.641,25.843,25.843,0,0,1,12.188.62A11.811,11.811,0,0,1,247.572,177a2.619,2.619,0,0,1,.138,3.456c-.8,1.189-2.405,2.571-5.695,5.253s-8.266,6.662-11,9.372-3.234,4.147-5.131,8.343-5.194,11.152-7.16,14.948-2.6,4.432-6.068,7.579-9.76,8.806-14.052,12.971-6.581,6.835-9.856,9.252a49.62,49.62,0,0,1-10.841,5.85c-3.306,1.272-5.659,1.653-7.039,2.645s-1.788,2.595-3.249,6.442-3.975,9.94-6.925,20-6.334,24.079-8.22,31.332-2.272,7.737-10.009,5.077-22.822-8.462-30.655-11.8-8.413-4.207-8.726-5.343-.359-2.538,4.187-12.635Z" transform="translate(-102.959 -91.869)" clip-rule="evenodd"/>
    </clipPath>
    <clipPath id="clip-path-5">
      <path id="Контур_3974" data-name="Контур 3974" d="M512.276,290.311c-4.121-10.588-12.9-28.065-17.466-37.205s-4.936-9.945-4.753-13.2.914-8.958,2.091-20.545,2.8-29.059,3.357-38.745.044-11.588-3.733-21.7-10.818-28.444-14.924-38.005-5.277-10.356-11.123-13.655-16.369-9.1-21.881-12.064-6.014-3.081-10.9-2.113-14.164,3.024-18.97,4.243-5.14,1.6-4.542,2.737a12.326,12.326,0,0,0,4.076,4.219c1.948,1.2,4.315,1.7,9.1,4.023s11.985,6.476,16.8,13.859,7.246,18,8.205,27.656.448,18.355-1.087,24.878a39.385,39.385,0,0,1-6.075,13.75c-1.983,2.878-3.389,4.285-4.86,5.116a6.2,6.2,0,0,1-4.8.64c-1.791-.448-3.837-1.6-7.61-4.093a137.834,137.834,0,0,0-16.052-9.657,92.983,92.983,0,0,0-19.953-7.163c-5.116-1.023-7.291-.256-8.954.768a8.171,8.171,0,0,0-3.326,3.517c-.512,1.215-.384,2.366,2.366,4.924s8.122,6.523,11.384,9.465,4.413,4.861,6.587,9.721,5.372,12.663,8.442,17.715,6.011,7.354,9.4,10.1a106.184,106.184,0,0,1,10.169,9.081c2.942,3.134,4.988,6.2,7.483,8.7a29.824,29.824,0,0,0,8.122,5.692,27.828,27.828,0,0,0,7.291,2.3c2.174.384,4.093.512,7.271,7.027s7.617,19.417,10.866,31.6,5.308,23.661,7,29.4,3.015,5.737,9.561,3.015,18.313-8.163,24.932-11.62,8.09-4.927,9.092-7.513,1.535-6.285-2.585-16.873Z" transform="translate(-374.66 -92.536)" clip-rule="evenodd"/>
    </clipPath>
    <clipPath id="clip-path-6">
      <path id="Контур_3983" data-name="Контур 3983" d="M243.6,128.438A31.361,31.361,0,1,1,212.36,159.8a31.3,31.3,0,0,1,31.237-31.36Z" transform="translate(-212.36 -128.438)" clip-rule="evenodd"/>
    </clipPath>
    <clipPath id="clip-path-7">
      <path id="Контур_3991" data-name="Контур 3991" d="M418.627,128.438a31.361,31.361,0,1,0,31.237,31.36A31.3,31.3,0,0,0,418.627,128.438Z" transform="translate(-387.391 -128.438)" clip-rule="evenodd"/>
    </clipPath>
    <clipPath id="clip-path-8">
      <path id="Контур_3999" data-name="Контур 3999" d="M216.256,384.271c4.328,3.175,12.57,9.315,16.775,12.966s4.37,4.813,4.066,6.2-1.079,2.987-4.066,4.9-8.187,4.121-10.732,5.421-2.434,1.687-.6,3.792,5.4,5.928,19.115,20.987,37.577,41.354,50.341,55.461,14.427,16.027,15.195,16.73.64.192.128-4.542S305.073,492.486,302.77,485s-6.014-13.5-16.57-32.757-27.959-51.759-37.782-70.173-12.067-22.742-13.22-25.316-1.217-3.4-.7-4.607a32.89,32.89,0,0,1,2.594-4.319c.992-1.511,1.888-2.934,2.481-3.87s.884-1.383-4.1,1.125-15.238,7.972-20.414,11.042-5.273,3.748-5.085,7.441.66,10.4,1.1,13.861.856,3.669,5.183,6.843Z" transform="translate(-209.921 -343.217)" clip-rule="evenodd"/>
    </clipPath>
    <clipPath id="clip-path-9">
      <path id="Контур_4002" data-name="Контур 4002" d="M509.086,446.622c-2.075-4.261-4.842-12.947-6.142-17.6s-1.134-5.256,3.569-8.106,13.944-7.94,23.71-13.169,20.058-10.6,25.452-13.418,5.893-3.1,6.612-2.518,1.66,2.019,3.873,6,5.7,10.513,7.414,13.916,1.66,3.68-8.576,9.628-30.653,17.567-41.554,23.46-12.284,6.059-14.358,1.8Z" transform="translate(-502.246 -391.567)" clip-rule="evenodd"/>
    </clipPath>
    <clipPath id="clip-path-10">
      <path id="Контур_4005" data-name="Контур 4005" d="M149.991,448.117a142.989,142.989,0,0,0,3.874-16.143c.842-4.475.842-5.581.674-6.376s-.505-1.275-10.177-6.279-28.677-14.531-38.565-19.294-10.658-4.763-11.4-3.994-1.468,2.31-3.416,5.966-5.124,9.431-6.712,12.318-1.588,2.887,9.07,8.613,31.973,17.178,43.136,23,12.173,6.014,13.52,2.189Z" transform="translate(-83.504 -395.653)" clip-rule="evenodd"/>
    </clipPath>
    <clipPath id="clip-path-11">
      <path id="Контур_4008" data-name="Контур 4008" d="M270.862,333.558c-7.214-7.128-8.016-7.257-8.926-6.972s-1.928.985-4.986,4.359-8.159,9.424-10.709,12.8-2.55,4.075,3.493,13.584,18.129,27.83,24.808,37.212,7.951,9.828,8.969,9.7,1.781-.827,6.552-5.693,13.549-13.9,17.875-18.574,4.2-4.993,3.022-6.107-3.4-3.022-11.33-11.039-21.553-22.143-28.768-29.271Z" transform="translate(-244.628 -326.508)" clip-rule="evenodd"/>
    </clipPath>
    <clipPath id="clip-path-12">
      <path id="Контур_4012" data-name="Контур 4012" d="M9.992,492.194c9.047-14.537,25.9-42.352,34.591-56.16s9.2-13.61,11.62-12.461,6.747,3.249,18.678,9.262,31.466,15.94,41.329,21.094,10.054,5.536,7.144,18.45-8.92,38.359-12.441,51.229-4.551,13.164-21.183,13.164-48.866-.294-65.719-.883-18.325-1.472-20.017-5.961A77,77,0,0,1,.049,512.667c-.339-4.677.9-5.936,9.943-20.473Z" transform="translate(0 -423.09)" fill="#142f82" clip-rule="evenodd"/>
    </clipPath>
    <clipPath id="clip-path-13">
      <path id="Контур_4015" data-name="Контур 4015" d="M526.97,523.624c-1.527-5.568-4.518-15.621-8.24-27.266s-8.176-24.88-10.276-31.815-1.845-7.572,5.122-11.517,20.648-11.2,32.9-17.53,23.066-11.74,28.634-14.285,5.886-2.227,14.953,17.371,26.884,58.477,35.824,78.329,9,20.68,6.013,20.807-9.035-.445-26.757-1.622-47.118-2.959-61.849-4.391-14.794-2.513-16.321-8.081Z" transform="translate(-507.3 -420.094)" clip-rule="evenodd"/>
    </clipPath>
  </defs>
  <g id="Группа_масок_19" data-name="Группа масок 19" transform="translate(-960 -0.238)" clip-path="url(#clip-path)">
    <g id="Слой_x0020_1" transform="translate(1000.541 -0.006)">
      <path id="Контур_3959" data-name="Контур 3959" d="M344.991,364.237c22.828,5.07,45.656,10.14,58.011,12.675s14.236,2.535,15.342,2.12,1.438-1.245,2.407-1.853a8.812,8.812,0,0,1,4.482-1c1.909,0,4.122.387,5.312,1.854s1.356,4.011,2.223,26.873,2.437,66.042,3.154,89.712.581,27.833.445,32c-125.1,0-238.026,0-300.576-.221s-62.549-.662-61.722-24.333,2.483-70.571,3.393-95.293,1.076-27.268,2.266-28.734,3.4-1.854,5.312-1.854a8.812,8.812,0,0,1,4.482,1c.968.609,1.3,1.438,2.407,1.853s2.988.415,15.342-2.12,35.183-7.6,58.011-12.675H344.991Z" transform="translate(-24.876 -122.597)" fill="#3359cf" fill-rule="evenodd"/>
      <g id="Сгруппировать_232" data-name="Сгруппировать 232" transform="translate(49.03 241.64)" clip-path="url(#clip-path-2)">
        <g id="_105553214431616" transform="translate(-84.971 -45.697)">
          <path id="_1" data-name="1" d="M210.457,340.725c.95,43.065.95,130.04-.528,175.322s-4.433,48.871-16.572,50.665-33.46,1.795-73.359-1.9-98.375-11.083-130.78-41.06S-49.519,441.211-52.58,406.8s-2.85-50.665,10.977-63.965,41.271-23.644,72.937-31.666,67.554-13.722,97.32-15.305,53.409.95,66.181,1.794,14.672,0,15.622,43.066Z" transform="translate(54.175 -295.354)" fill="#142f82" fill-rule="evenodd"/>
        </g>
      </g>
      <path id="Контур_3961" data-name="Контур 3961" d="M344.991,364.237c22.828,5.07,45.656,10.14,58.011,12.675s14.236,2.535,15.342,2.12,1.438-1.245,2.407-1.853a8.812,8.812,0,0,1,4.482-1c1.909,0,4.122.387,5.312,1.854s1.356,4.011,2.223,26.873,2.437,66.042,3.154,89.712.581,27.833.445,32c-125.1,0-238.026,0-300.576-.221s-62.549-.662-61.722-24.333,2.483-70.571,3.393-95.293,1.076-27.268,2.266-28.734,3.4-1.854,5.312-1.854a8.812,8.812,0,0,1,4.482,1c.968.609,1.3,1.438,2.407,1.853s2.988.415,15.342-2.12,35.183-7.6,58.011-12.675H344.991Z" transform="translate(-24.876 -122.597)" fill="none" fill-rule="evenodd"/>
      <path id="Контур_3962" data-name="Контур 3962" d="M264.779,350.046c22.878-.188,68.047-.188,90.81-.038s23.124.45,23.934,1.62a10.651,10.651,0,0,1,1.981,6.8c-.089,3.588-1.526,8.725-13.318,30.454s-33.941,60.05-45.7,79.21-13.14,19.16-18.091,11.724-13.476-22.309-25.162-42.787-26.532-46.563-34.093-60.433-7.839-15.526-7.361-17.759A26.624,26.624,0,0,1,240.4,352.2c.912-1.592,1.5-1.968,24.38-2.156Z" transform="translate(-79.982 -117.772)" fill="#e6dfdf" fill-rule="evenodd"/>
      <path id="Контур_3963" data-name="Контур 3963" d="M266.485,351.268c22.878-.188,68.047-.188,90.81-.038s23.124.45,23.934,1.62a10.65,10.65,0,0,1,1.981,6.8c-.089,3.588-1.526,8.725-13.318,30.454s-33.941,60.05-45.7,79.21-13.14,19.16-18.091,11.724-13.476-22.309-25.162-42.787-26.532-46.563-34.093-60.433-7.839-15.526-7.361-17.759a26.626,26.626,0,0,1,2.625-6.633c.912-1.592,1.5-1.968,24.38-2.156Z" transform="translate(-80.556 -118.183)" fill="rgba(29,29,27,0.2)" fill-rule="evenodd"/>
      <path id="Контур_3964" data-name="Контур 3964" d="M258.565,237.521c-1.446-5.56-1.335-12.565-2.836-23.462s-4.615-25.686-9.452-44.311-11.4-41.087-14.122-58.933-1.613-31.079,5.5-42.254,20.238-20.293,39.2-24.518,43.755-3.558,60.99,0,26.909,10.008,32.636,20.015,7.506,23.573,4.948,48.37-9.451,60.824-13.232,81.9-4.448,27.187-4.67,33.08,0,11.564-2,18.514-6.227,15.178-14.344,24.8-20.126,20.627-30.245,23.24-18.347-3.169-25.519-11.676-13.288-19.737-17.847-27.409-7.561-11.787-9.007-17.346Z" transform="translate(-77.681 -13.84)" fill="#e6dfdf" fill-rule="evenodd"/>
      <g id="Сгруппировать_233" data-name="Сгруппировать 233" transform="translate(153.109 27.278)" clip-path="url(#clip-path-3)">
        <g id="_105553214435680" transform="translate(13.259 148.789)">
          <path id="_1-2" data-name="1" d="M258.637,272.894c3.65,4.835,10.007,12.452,15.885,18.78a122.354,122.354,0,0,0,15.173,14.244,19.235,19.235,0,0,0,10.376,4.168,112.871,112.871,0,0,0,15.923.929,93.605,93.605,0,0,0,16.883-1.529c4.378-.93,6.717-2.249,10.345-5.248a113.541,113.541,0,0,0,14.484-14.784c5.938-7.107,12.894-16.643,16.673-21.2s4.378-4.138,2.849,4.738S372.04,299.2,368.09,312.9s-8.19,23.758-15.288,31.338-17.054,12.677-26.05,15.376-17.033,3-25.25-.81-16.613-11.725-24.95-22.641-16.613-24.83-21.021-36.045-4.948-19.732-4.708-25.309,1.259-8.217,2.24-8.509,1.923,1.762,5.573,6.6Z" transform="translate(-250.777 -265.396)" fill="rgba(29,29,27,0.4)" fill-rule="evenodd"/>
        </g>
      </g>
      <path id="Контур_3966" data-name="Контур 3966" d="M258.565,237.521c-1.446-5.56-1.335-12.565-2.836-23.462s-4.615-25.686-9.452-44.311-11.4-41.087-14.122-58.933-1.613-31.079,5.5-42.254,20.238-20.293,39.2-24.518,43.755-3.558,60.99,0,26.909,10.008,32.636,20.015,7.506,23.573,4.948,48.37-9.451,60.824-13.232,81.9-4.448,27.187-4.67,33.08,0,11.564-2,18.514-6.227,15.178-14.344,24.8-20.126,20.627-30.245,23.24-18.347-3.169-25.519-11.676-13.288-19.737-17.847-27.409-7.561-11.787-9.007-17.346Z" transform="translate(-77.681 -13.84)" fill="none" fill-rule="evenodd"/>
      <path id="Контур_3967" data-name="Контур 3967" d="M219.441,74.069c-.378-4.961-.967-11.351-.252-17.363s2.733-11.645,5.129-15.092a13.545,13.545,0,0,1,7.777-5.507c2.606-.8,5.045-1.135,6.474-1.808s1.85-1.682,2.144-4.036.463-6.054,2.565-9.837,6.138-7.651,14.378-11.182S278.339,2.517,289.773,1a98.175,98.175,0,0,1,32.413.715c10.552,2.06,21.23,6.011,28.545,11.014a43.582,43.582,0,0,1,13.411,14.84c2.144,3.784,2.48,5.3,4.2,6.432s4.835,1.892,7.735,3.111a15.907,15.907,0,0,1,7.819,6.39,38.293,38.293,0,0,1,4.708,13.074,22.924,22.924,0,0,1-.841,11.477c-1.219,3.91-3.321,8.45-4.835,14.462a140.273,140.273,0,0,0-2.985,19.044c-.546,5.549-.715,9.164-3.7,8.954s-8.786-4.246-11.561-11.224-2.522-16.9-2.354-24.3.252-12.276-.168-15.513-1.345-4.835-2.312-5.213-1.976.462-5.381,2.27a84.361,84.361,0,0,1-17.7,6.895,118.113,118.113,0,0,1-31.446,4.036,159.3,159.3,0,0,1-32.917-4.288c-8.786-2.06-14-4.078-17.825-6.306a52.049,52.049,0,0,1-7.735-5.843c-1.471-1.177-1.976-1.093-2.06-.547a4.609,4.609,0,0,0,.925,2.607,8.163,8.163,0,0,1,1.85,4.162c.168,2.018-.5,4.961-1.64,9s-2.732,9.165-4.12,15.176-2.565,12.906-5,18.876-6.138,11.014-8.913,12.234-4.624-1.388-5.759-6.432-1.556-12.528-1.85-18.035-.463-9.039-.841-14Z" transform="translate(-73.663 0)" fill="#cfa434" fill-rule="evenodd"/>
      <path id="Контур_3968" data-name="Контур 3968" d="M107.268,289.745c4.546-10.1,13.686-28.887,18.264-38.566s4.6-10.246,3.669-21.912-2.8-34.43-3.612-46.576-.556-13.671.963-17.675,4.3-10.486,7.683-19.837,7.362-21.57,9.74-27.928,3.151-6.856,6.074-8.05a139.026,139.026,0,0,0,13.873-6.187c5.88-3.1,12.57-7.414,16.275-9.515s4.423-1.99,9.454-.691,14.375,3.787,18.937,5.2,4.34,1.742,3.87,2.488a8.861,8.861,0,0,1-3.068,3.1,81.728,81.728,0,0,0-10.339,6.469c-5.419,4.064-13.214,10.975-18.218,18.743a41.8,41.8,0,0,0-6.524,26.428c.691,10.035,4.285,21.48,7.132,28.584s4.948,9.869,7.077,10.809,4.285.055,8.238-3.1,9.7-8.57,15.643-12.317a46.661,46.661,0,0,1,17.181-6.641,25.843,25.843,0,0,1,12.188.62A11.811,11.811,0,0,1,247.572,177a2.619,2.619,0,0,1,.138,3.456c-.8,1.189-2.405,2.571-5.695,5.253s-8.266,6.662-11,9.372-3.234,4.147-5.131,8.343-5.194,11.152-7.16,14.948-2.6,4.432-6.068,7.579-9.76,8.806-14.052,12.971-6.581,6.835-9.856,9.252a49.62,49.62,0,0,1-10.841,5.85c-3.306,1.272-5.659,1.653-7.039,2.645s-1.788,2.595-3.249,6.442-3.975,9.94-6.925,20-6.334,24.079-8.22,31.332-2.272,7.737-10.009,5.077-22.822-8.462-30.655-11.8-8.413-4.207-8.726-5.343-.359-2.538,4.187-12.635Z" transform="translate(-34.655 -30.922)" fill="#f7f5f6" fill-rule="evenodd"/>
      <g id="Сгруппировать_234" data-name="Сгруппировать 234" transform="translate(68.304 60.947)" clip-path="url(#clip-path-4)">
        <g id="_105553214426016" transform="translate(8.727 -10.705)">
          <path id="_1-3" data-name="1" d="M134.245,141.722c4.414-7.412,7.728-13.529,9.919-17.4s3.256-5.485,8.228-9.905S166.242,102.78,170.8,99.208s4.795-3.492,5.229-2.743a13.949,13.949,0,0,1,1.46,4.183,14.787,14.787,0,0,1-.888,8.5,38.767,38.767,0,0,1-7.636,12.273c-3.157,3.216-6.432,4.479-8.228,5.525s-2.111,1.874-2.289,4.014a68.532,68.532,0,0,1-1.111,9.894c-.893,4.3-2.639,9.464-3.552,12.52a31.161,31.161,0,0,0-1.349,7.421,107.8,107.8,0,0,0-.834,13.454c.159,4.167,1.111,6.628,3.6,11.737s6.5,12.868,8.553,18.253,2.144,8.4,1.6,13.463a146.43,146.43,0,0,1-2.784,16.43c-1.05,4.245-1.963,5.614-3.7,6.755a35.458,35.458,0,0,1-6.161,2.784,20.66,20.66,0,0,0-3.651,1.689c-.593.411-.593.684-.456,1.46a15.08,15.08,0,0,1,.365,2.967,3.526,3.526,0,0,1-1.05,2.236c-.639.776-1.552,1.78-6.206,11.734s-13.049,28.857-18.669,41.982-8.467,20.471-6.072,25.6,10.03,8.046,17.388,8.879,14.438-.416,19.991-8.052,9.579-21.657,19.922-37.622,27-33.874,42.411-48.381,29.57-25.613,38.525-39.913,12.7-31.791,12.286-46.576-5-26.863-12.216-38.316S238.2,99.08,226.883,91.652,202.8,80.2,186.485,77.839s-36.164-3.054-47.756-.417S123.8,86.03,122.208,96.095s-1.458,24.225-2.013,35.47-1.8,19.575-2.152,24.919.208,7.7,3.242,4.531,8.546-11.882,12.96-19.294Z" transform="translate(-116.114 -75.734)" fill="rgba(29,29,27,0.4)" fill-rule="evenodd"/>
          <path id="Контур_3969" data-name="Контур 3969" d="M220.494,95.856a7.15,7.15,0,0,1,.61,3.127,11.112,11.112,0,0,1-1.946,4.748,29.06,29.06,0,0,1-4.8,5.813,45.576,45.576,0,0,1-7.054,4.977c-2.8,1.72-6.112,3.706-7.126,4.366s.271-.006,1.148-1.573A18.261,18.261,0,0,0,202.9,111.7a11.52,11.52,0,0,0,.163-2.97,15.369,15.369,0,0,0-.337-2.1,16.07,16.07,0,0,0-.583-1.96c-.222-.6-.464-1.121-.633-1.509s-.265-.641-.868-.452a12.261,12.261,0,0,0-2.849,1.653c-1.137.831-2.3,1.862-3.387,2.713a30.059,30.059,0,0,1-2.553,1.806c-.464.284-.386.18,1.249-1.351s4.826-4.489,6.487-6.02,1.791-1.635,4.969-2.53,9.406-2.582,12.533-3.309,3.153-.493,3.4.182Z" transform="translate(-141.525 -82.295)" fill="rgba(29,29,27,0.2)" fill-rule="evenodd"/>
        </g>
      </g>
      <path id="Контур_3971" data-name="Контур 3971" d="M107.268,289.745c4.546-10.1,13.686-28.887,18.264-38.566s4.6-10.246,3.669-21.912-2.8-34.43-3.612-46.576-.556-13.671.963-17.675,4.3-10.486,7.683-19.837,7.362-21.57,9.74-27.928,3.151-6.856,6.074-8.05a139.026,139.026,0,0,0,13.873-6.187c5.88-3.1,12.57-7.414,16.275-9.515s4.423-1.99,9.454-.691,14.375,3.787,18.937,5.2,4.34,1.742,3.87,2.488a8.861,8.861,0,0,1-3.068,3.1,81.728,81.728,0,0,0-10.339,6.469c-5.419,4.064-13.214,10.975-18.218,18.743a41.8,41.8,0,0,0-6.524,26.428c.691,10.035,4.285,21.48,7.132,28.584s4.948,9.869,7.077,10.809,4.285.055,8.238-3.1,9.7-8.57,15.643-12.317a46.661,46.661,0,0,1,17.181-6.641,25.843,25.843,0,0,1,12.188.62A11.811,11.811,0,0,1,247.572,177a2.619,2.619,0,0,1,.138,3.456c-.8,1.189-2.405,2.571-5.695,5.253s-8.266,6.662-11,9.372-3.234,4.147-5.131,8.343-5.194,11.152-7.16,14.948-2.6,4.432-6.068,7.579-9.76,8.806-14.052,12.971-6.581,6.835-9.856,9.252a49.62,49.62,0,0,1-10.841,5.85c-3.306,1.272-5.659,1.653-7.039,2.645s-1.788,2.595-3.249,6.442-3.975,9.94-6.925,20-6.334,24.079-8.22,31.332-2.272,7.737-10.009,5.077-22.822-8.462-30.655-11.8-8.413-4.207-8.726-5.343-.359-2.538,4.187-12.635Z" transform="translate(-34.655 -30.922)" fill="none" fill-rule="evenodd"/>
      <path id="Контур_3972" data-name="Контур 3972" d="M512.276,290.311c-4.121-10.588-12.9-28.065-17.466-37.205s-4.936-9.945-4.753-13.2.914-8.958,2.091-20.545,2.8-29.059,3.357-38.745.044-11.588-3.733-21.7-10.818-28.444-14.924-38.005-5.277-10.356-11.123-13.655-16.369-9.1-21.881-12.064-6.014-3.081-10.9-2.113-14.164,3.024-18.97,4.243-5.14,1.6-4.542,2.737a12.326,12.326,0,0,0,4.076,4.219c1.948,1.2,4.315,1.7,9.1,4.023s11.985,6.476,16.8,13.859,7.246,18,8.205,27.656.448,18.355-1.087,24.878a39.385,39.385,0,0,1-6.075,13.75c-1.983,2.878-3.389,4.285-4.86,5.116a6.2,6.2,0,0,1-4.8.64c-1.791-.448-3.837-1.6-7.61-4.093a137.834,137.834,0,0,0-16.052-9.657,92.983,92.983,0,0,0-19.953-7.163c-5.116-1.023-7.291-.256-8.954.768a8.171,8.171,0,0,0-3.326,3.517c-.512,1.215-.384,2.366,2.366,4.924s8.122,6.523,11.384,9.465,4.413,4.861,6.587,9.721,5.372,12.663,8.442,17.715,6.011,7.354,9.4,10.1a106.184,106.184,0,0,1,10.169,9.081c2.942,3.134,4.988,6.2,7.483,8.7a29.824,29.824,0,0,0,8.122,5.692,27.828,27.828,0,0,0,7.291,2.3c2.174.384,4.093.512,7.271,7.027s7.617,19.417,10.866,31.6,5.308,23.661,7,29.4,3.015,5.737,9.561,3.015,18.313-8.163,24.932-11.62,8.09-4.927,9.092-7.513,1.535-6.285-2.585-16.873Z" transform="translate(-126.105 -31.146)" fill="#f7f5f6" fill-rule="evenodd"/>
      <g id="Сгруппировать_235" data-name="Сгруппировать 235" transform="translate(248.555 61.389)" clip-path="url(#clip-path-5)">
        <g id="_105553214432000" transform="translate(-19.261 -11.146)">
          <path id="_1-4" data-name="1" d="M478.9,141.723c-4.414-7.412-7.728-13.529-9.919-17.4s-3.256-5.485-8.228-9.905-13.851-11.641-18.409-15.213-4.795-3.492-5.229-2.743a13.951,13.951,0,0,0-1.46,4.183,14.787,14.787,0,0,0,.888,8.5,38.767,38.767,0,0,0,7.636,12.273c3.157,3.216,6.432,4.479,8.228,5.525s2.111,1.874,2.289,4.014a68.525,68.525,0,0,0,1.111,9.894c.893,4.3,2.639,9.464,3.552,12.52a31.162,31.162,0,0,1,1.349,7.421,107.8,107.8,0,0,1,.833,13.454c-.159,4.167-1.111,6.628-3.6,11.737s-6.5,12.868-8.553,18.252-2.144,8.4-1.6,13.463a146.422,146.422,0,0,0,2.784,16.43c1.049,4.245,1.963,5.614,3.7,6.755a35.458,35.458,0,0,0,6.161,2.784,20.662,20.662,0,0,1,3.651,1.689c.593.411.593.684.456,1.46a15.083,15.083,0,0,0-.365,2.967,3.526,3.526,0,0,0,1.049,2.236c.639.776,1.552,1.78,6.206,11.734s13.049,28.857,18.669,41.981,8.467,20.471,6.072,25.6-10.03,8.046-17.388,8.879-14.438-.416-19.991-8.052-9.579-21.657-19.922-37.622-27-33.874-42.411-48.381-29.57-25.613-38.525-39.913-12.7-31.791-12.286-46.576,5-26.863,12.217-38.316,17.076-22.282,28.39-29.709,24.087-11.453,40.4-13.813,36.164-3.054,47.756-.417,14.924,8.607,16.52,18.672,1.458,24.225,2.013,35.47,1.8,19.574,2.152,24.919-.208,7.7-3.242,4.531-8.546-11.882-12.96-19.294Z" transform="translate(-345.627 -75.734)" fill="rgba(29,29,27,0.4)" fill-rule="evenodd"/>
          <path id="Контур_3973" data-name="Контур 3973" d="M454.5,95.857a7.149,7.149,0,0,0-.61,3.127,11.112,11.112,0,0,0,1.946,4.748,29.057,29.057,0,0,0,4.8,5.813,45.577,45.577,0,0,0,7.054,4.976c2.8,1.72,6.112,3.706,7.126,4.366s-.271-.006-1.148-1.573a18.261,18.261,0,0,1-1.578-5.616,11.518,11.518,0,0,1-.163-2.97,15.367,15.367,0,0,1,.337-2.1,16.073,16.073,0,0,1,.583-1.96c.222-.6.464-1.121.633-1.509s.265-.641.868-.452a12.262,12.262,0,0,1,2.849,1.653c1.137.831,2.3,1.862,3.387,2.713a30.062,30.062,0,0,0,2.553,1.806c.464.284.386.18-1.249-1.351s-4.826-4.489-6.487-6.02-1.791-1.635-4.969-2.53S461.025,96.4,457.9,95.675s-3.153-.493-3.4.182Z" transform="translate(-382.061 -82.296)" fill="rgba(29,29,27,0.2)" fill-rule="evenodd"/>
        </g>
      </g>
      <path id="Контур_3975" data-name="Контур 3975" d="M512.276,290.311c-4.121-10.588-12.9-28.065-17.466-37.205s-4.936-9.945-4.753-13.2.914-8.958,2.091-20.545,2.8-29.059,3.357-38.745.044-11.588-3.733-21.7-10.818-28.444-14.924-38.005-5.277-10.356-11.123-13.655-16.369-9.1-21.881-12.064-6.014-3.081-10.9-2.113-14.164,3.024-18.97,4.243-5.14,1.6-4.542,2.737a12.326,12.326,0,0,0,4.076,4.219c1.948,1.2,4.315,1.7,9.1,4.023s11.985,6.476,16.8,13.859,7.246,18,8.205,27.656.448,18.355-1.087,24.878a39.385,39.385,0,0,1-6.075,13.75c-1.983,2.878-3.389,4.285-4.86,5.116a6.2,6.2,0,0,1-4.8.64c-1.791-.448-3.837-1.6-7.61-4.093a137.834,137.834,0,0,0-16.052-9.657,92.983,92.983,0,0,0-19.953-7.163c-5.116-1.023-7.291-.256-8.954.768a8.171,8.171,0,0,0-3.326,3.517c-.512,1.215-.384,2.366,2.366,4.924s8.122,6.523,11.384,9.465,4.413,4.861,6.587,9.721,5.372,12.663,8.442,17.715,6.011,7.354,9.4,10.1a106.184,106.184,0,0,1,10.169,9.081c2.942,3.134,4.988,6.2,7.483,8.7a29.824,29.824,0,0,0,8.122,5.692,27.828,27.828,0,0,0,7.291,2.3c2.174.384,4.093.512,7.271,7.027s7.617,19.417,10.866,31.6,5.308,23.661,7,29.4,3.015,5.737,9.561,3.015,18.313-8.163,24.932-11.62,8.09-4.927,9.092-7.513,1.535-6.285-2.585-16.873Z" transform="translate(-126.105 -31.146)" fill="none" fill-rule="evenodd"/>
      <path id="Контур_3976" data-name="Контур 3976" d="M309.119,133.274a24.573,24.573,0,0,1,7.407-4.323,39.92,39.92,0,0,1,8.91-2.332,52.853,52.853,0,0,1,9.292-.614,42.817,42.817,0,0,1,11.359,1.668,82.3,82.3,0,0,1,11.438,4.51c2.418,1.164,2.491,1.382,1.582,3.364s-2.8,5.728-4.091,8.583a36.234,36.234,0,0,0-2.273,6.055c-.291,1.236-.182,1.746-.637,1.6a14.2,14.2,0,0,1-2.746-2,32.425,32.425,0,0,0-4.556-3.365,22.8,22.8,0,0,0-5.686-2.187,24.771,24.771,0,0,0-5.621-.8,19.236,19.236,0,0,0-5.125.645,20.521,20.521,0,0,0-5.466,2.194,44.894,44.894,0,0,0-5,3.592c-1.091.873-1.273,1.018-1.818-.291a46.593,46.593,0,0,0-2.837-6.419c-1.382-2.346-3.237-4.273-4.273-5.8s-1.255-2.655.145-4.073Z" transform="translate(-103.713 -42.408)" fill="#5786ed" fill-rule="evenodd"/>
      <ellipse id="Эллипс_13" data-name="Эллипс 13" cx="11.545" cy="11.22" rx="11.545" ry="11.22" transform="translate(218.674 80.356)" fill="#2950af"/>
      <path id="Контур_3977" data-name="Контур 3977" d="M290.289,128.089c.963-.222,3.33.256,5.948,1.3a21.64,21.64,0,0,1,7.9,5.215c2.411,2.573,4.364,6.116,6.972,12.174s5.871,14.63,7.448,19.719,1.465,6.692.912,8.185a8.843,8.843,0,0,1-2.876,3.9c-1.328,1.023-2.987,1.687-7.995,3.325s-13.365,4.25-17.56,5.57-4.228,1.348-3.2-2.171a141.184,141.184,0,0,0,4.236-17.932,97.1,97.1,0,0,0,.821-21.231,76.558,76.558,0,0,0-2.35-14.011c-.774-2.895-1.216-3.817-.254-4.04Z" transform="translate(-96.694 -43.095)" fill="#4c75cf" fill-rule="evenodd"/>
      <ellipse id="Эллипс_14" data-name="Эллипс 14" cx="41.972" cy="42.138" rx="41.972" ry="42.138" transform="translate(123.338 74.012)" fill="#2950af"/>
      <ellipse id="Эллипс_15" data-name="Эллипс 15" cx="38.512" cy="38.664" rx="38.512" ry="38.664" transform="translate(126.798 77.486)" fill="#08243b"/>
      <path id="Контур_3978" data-name="Контур 3978" d="M243.6,128.438A31.361,31.361,0,1,1,212.36,159.8a31.3,31.3,0,0,1,31.237-31.36Z" transform="translate(-71.478 -43.231)" fill="#ff5833" fill-rule="evenodd"/>
      <g id="Сгруппировать_236" data-name="Сгруппировать 236" transform="translate(140.882 85.207)" clip-path="url(#clip-path-6)">
        <g id="_105553214428448" transform="translate(-3.107 -4.413)">
          <ellipse id="Эллипс_16" data-name="Эллипс 16" cx="29.515" cy="29.292" rx="29.515" ry="29.292" transform="translate(6.551 6.482)" fill="#d4492a"/>
          <ellipse id="Эллипс_17" data-name="Эллипс 17" cx="24.201" cy="23.809" rx="24.201" ry="23.809" transform="translate(17.202 11.964)" fill="#b03d23"/>
          <path id="Контур_3979" data-name="Контур 3979" d="M239.3,160.239c.716-.015,1.582.164,2.209.149s1.015-.224,2.119-1.015a23.552,23.552,0,0,1,5.134-3.03,22.242,22.242,0,0,1,6.507-1.313,23.223,23.223,0,0,1,3.313.119,8.209,8.209,0,0,0,2.209-.239c.6-.149.985-.328,1.268-.4s.463-.045.433.239a3.1,3.1,0,0,1-.627,1.283,4.921,4.921,0,0,1-2.254,1.448c-1.418.6-3.776,1.4-4.94,1.925s-1.134.761-.94.955.552.343,3.6,1.179,8.775,2.358,12.163,3.343,4.432,1.433,4.91,1.9a.886.886,0,0,1,.134,1.268c-.254.328-.672.507-2.209.284s-4.194-.851-5.776-1.119a5.271,5.271,0,0,0-2.463-.075c-.373.1-.612.224-.388.373a16.727,16.727,0,0,0,2.641.806c1.731.477,4.507,1.254,6.223,1.806a10.356,10.356,0,0,1,2.821,1.194c.448.313.686.612.671.97a1.233,1.233,0,0,1-.671.97c-.388.194-.9.164-3.194-.313s-6.388-1.4-8.552-1.851-2.4-.418-2.448-.284.1.373,1.4.851,3.746,1.194,5.611,1.686,3.149.761,3.791,1.015.642.492.522.806a1.751,1.751,0,0,1-.851.955,4.329,4.329,0,0,1-2.4.254,31.018,31.018,0,0,1-4.418-.925c-1.672-.448-3.433-.985-4.418-1.194s-1.194-.09-1.268.06-.015.328.642.6a27.633,27.633,0,0,0,2.9.88c.985.254,1.7.4,2.268.552s.985.3,1.164.627a1.178,1.178,0,0,1-.164,1.209c-.284.373-.791.612-2.492.343s-4.6-1.045-8.164-1.925-7.805-1.866-10.327-2.537a17.274,17.274,0,0,1-4.03-1.4,19.565,19.565,0,0,1-1.97-1.224,9.483,9.483,0,0,0-2.3-1.3,23.434,23.434,0,0,0-2.88-.552c-.985-.194-1.94-.522-1.94-1.448s.955-2.448,1.791-3.6a17.9,17.9,0,0,1,2.164-2.507,8.045,8.045,0,0,1,1.657-1.269,3.769,3.769,0,0,1,1.821-.522Z" transform="translate(-215.818 -132.788)" fill="#ffd9b5" fill-rule="evenodd"/>
          <path id="Контур_3980" data-name="Контур 3980" d="M231.162,160.145c1.4.194,3.761.582,5,.806s1.358.284,1,.836-1.194,1.6-2.224,3.179-2.254,3.7-3.059,5.224-1.194,2.447-1.507,2.88-.552.373-1.746.045-3.343-.925-4.462-1.283-1.209-.478-.851-1.3,1.164-2.343,2.164-4.224a53.854,53.854,0,0,1,3.015-5.239c.821-1.119,1.269-1.119,2.672-.925Z" transform="translate(-212.876 -134.664)" fill="#f7f5f6" fill-rule="evenodd"/>
          <path id="Контур_3981" data-name="Контур 3981" d="M212.352,152.852c3.074.716,8.805,2,11.656,2.686s2.821.776,2.373,1.522-1.314,2.149-2.388,3.865-2.358,3.746-3.358,5.477a39.983,39.983,0,0,1-2.254,3.806c-.537.642-.9.492-2.433.149s-4.254-.881-5.806-1.314-1.94-.761-2.164-3.149-.284-6.835-.3-9.507a19.609,19.609,0,0,1,.149-4.03c.134-.463.373-.492.7-.433s.746.209,3.821.925Z" transform="translate(-207.677 -131.923)" fill="#1d1d1b" fill-rule="evenodd"/>
          <path id="Контур_3982" data-name="Контур 3982" d="M263.313,188.342l-4.389,2.239-20.961-62.973,3.762-4.389,21.588,65.123Zm3.494-1.7-21.767-64.854-1.971,1.792,21.23,64.5,2.508-1.433Z" transform="translate(-217.871 -121.786)" fill="rgba(247,245,246,0.4)" fill-rule="evenodd"/>
        </g>
      </g>
      <path id="Контур_3984" data-name="Контур 3984" d="M243.6,128.438A31.361,31.361,0,1,1,212.36,159.8a31.3,31.3,0,0,1,31.237-31.36Z" transform="translate(-71.478 -43.231)" fill="none" fill-rule="evenodd"/>
      <path id="Контур_3985" data-name="Контур 3985" d="M387.973,127.348c-.963-.222-3.33.256-5.948,1.3a21.639,21.639,0,0,0-7.9,5.215c-2.411,2.573-4.364,6.116-6.972,12.174s-5.871,14.63-7.448,19.719-1.465,6.692-.912,8.185a8.843,8.843,0,0,0,2.876,3.9c1.327,1.023,2.987,1.687,7.995,3.325s13.365,4.25,17.56,5.57,4.228,1.348,3.2-2.171a141.173,141.173,0,0,1-4.236-17.932,97.108,97.108,0,0,1-.821-21.231,76.569,76.569,0,0,1,2.35-14.012C388.494,128.493,388.936,127.571,387.973,127.348Z" transform="translate(-120.64 -42.846)" fill="#4c75cf" fill-rule="evenodd"/>
      <ellipse id="Эллипс_18" data-name="Эллипс 18" cx="41.972" cy="42.138" rx="41.972" ry="42.138" transform="translate(253.074 74.012)" fill="#2950af"/>
      <ellipse id="Эллипс_19" data-name="Эллипс 19" cx="38.512" cy="38.664" rx="38.512" ry="38.664" transform="translate(256.535 77.486)" fill="#08243b"/>
      <path id="Контур_3986" data-name="Контур 3986" d="M418.627,128.438a31.361,31.361,0,1,0,31.237,31.36A31.3,31.3,0,0,0,418.627,128.438Z" transform="translate(-130.39 -43.231)" fill="#ff5833" fill-rule="evenodd"/>
      <g id="Сгруппировать_237" data-name="Сгруппировать 237" transform="translate(257.001 85.207)" clip-path="url(#clip-path-7)">
        <g id="_105553214606272" transform="translate(0 2.068)">
          <ellipse id="Эллипс_20" data-name="Эллипс 20" cx="29.515" cy="29.292" rx="29.515" ry="29.292" transform="translate(0.024)" fill="#d4492a"/>
          <ellipse id="Эллипс_21" data-name="Эллипс 21" cx="24.201" cy="23.809" rx="24.201" ry="23.809" transform="translate(0 5.483)" fill="#b03d23"/>
          <path id="Контур_3987" data-name="Контур 3987" d="M432.421,160.239c-.716-.015-1.582.164-2.209.149s-1.015-.224-2.119-1.015a23.553,23.553,0,0,0-5.134-3.03,22.242,22.242,0,0,0-6.507-1.313,23.223,23.223,0,0,0-3.313.119,8.208,8.208,0,0,1-2.209-.239c-.6-.149-.985-.328-1.268-.4s-.463-.045-.433.239a3.1,3.1,0,0,0,.627,1.283,4.922,4.922,0,0,0,2.254,1.448c1.418.6,3.776,1.4,4.94,1.925s1.134.761.94.955-.552.343-3.6,1.179-8.776,2.358-12.163,3.343-4.432,1.433-4.91,1.9a.886.886,0,0,0-.134,1.268c.254.328.672.507,2.209.284s4.194-.851,5.776-1.119a5.271,5.271,0,0,1,2.463-.075c.373.1.612.224.388.373a16.729,16.729,0,0,1-2.641.806c-1.731.477-4.507,1.254-6.223,1.806a10.356,10.356,0,0,0-2.821,1.194c-.448.313-.686.612-.671.97a1.232,1.232,0,0,0,.671.97c.388.194.9.164,3.194-.313s6.388-1.4,8.552-1.851,2.4-.418,2.448-.284-.1.373-1.4.851-3.746,1.194-5.611,1.686-3.149.761-3.791,1.015-.642.492-.522.806a1.751,1.751,0,0,0,.851.955,4.329,4.329,0,0,0,2.4.254,31.02,31.02,0,0,0,4.418-.925c1.671-.448,3.433-.985,4.418-1.194s1.194-.09,1.268.06.015.328-.642.6a27.639,27.639,0,0,1-2.9.88c-.985.254-1.7.4-2.268.552s-.985.3-1.164.627a1.178,1.178,0,0,0,.164,1.209c.284.373.791.612,2.492.343s4.6-1.045,8.164-1.925,7.805-1.866,10.328-2.537a17.274,17.274,0,0,0,4.03-1.4,19.561,19.561,0,0,0,1.97-1.224,9.485,9.485,0,0,1,2.3-1.3,23.436,23.436,0,0,1,2.88-.552c.985-.194,1.94-.522,1.94-1.448s-.955-2.448-1.791-3.6a17.894,17.894,0,0,0-2.164-2.507,8.045,8.045,0,0,0-1.657-1.269,3.77,3.77,0,0,0-1.821-.522Z" transform="translate(-390.175 -139.269)" fill="#ffd9b5" fill-rule="evenodd"/>
          <path id="Контур_3988" data-name="Контур 3988" d="M455.766,160.145c-1.4.194-3.761.582-5,.806s-1.358.284-1,.836,1.194,1.6,2.224,3.179,2.254,3.7,3.059,5.224,1.194,2.447,1.507,2.88.552.373,1.746.045,3.343-.925,4.462-1.283,1.209-.478.851-1.3-1.164-2.343-2.164-4.224a53.854,53.854,0,0,0-3.015-5.239c-.821-1.119-1.269-1.119-2.672-.925Z" transform="translate(-408.326 -141.146)" fill="#f7f5f6" fill-rule="evenodd"/>
          <path id="Контур_3989" data-name="Контур 3989" d="M472.185,152.852c-3.074.716-8.805,2-11.656,2.686s-2.821.776-2.373,1.522,1.314,2.149,2.388,3.865,2.358,3.746,3.358,5.477a39.972,39.972,0,0,0,2.254,3.806c.537.642.9.492,2.433.149s4.254-.881,5.806-1.314,1.94-.761,2.164-3.149.284-6.835.3-9.507a19.607,19.607,0,0,0-.149-4.03c-.134-.463-.373-.492-.7-.433s-.746.209-3.821.925Z" transform="translate(-411.134 -138.405)" fill="#1d1d1b" fill-rule="evenodd"/>
          <path id="Контур_3990" data-name="Контур 3990" d="M449.328,181.44l-2.337,4.338L393.938,145.9l.6-5.75,54.792,41.29Zm1.906-3.387-54.786-40.967-.6,2.594,54.14,40.978,1.248-2.605Z" transform="translate(-389.594 -133.417)" fill="rgba(247,245,246,0.4)" fill-rule="evenodd"/>
        </g>
      </g>
      <path id="Контур_3992" data-name="Контур 3992" d="M418.627,128.438a31.361,31.361,0,1,0,31.237,31.36A31.3,31.3,0,0,0,418.627,128.438Z" transform="translate(-130.39 -43.231)" fill="none" fill-rule="evenodd"/>
      <ellipse id="Эллипс_22" data-name="Эллипс 22" cx="5.857" cy="5.692" rx="5.857" ry="5.692" transform="translate(224.362 85.883)" fill="#08243b"/>
      <path id="Контур_3993" data-name="Контур 3993" d="M318.657,417.2c1.371,7,5.6,15.849,8.081,20.539s3.2,5.219,4.834,5.6a33.211,33.211,0,0,0,6.493.649c2.309.024,4.377-.168,5.772-1.395s2.116-3.487,4.353-8.995,5.989-14.262,7.336-20.587.288-10.221-4.137-12-12.218-1.443-17.965-1.274-9.452.168-12.049,2.742-4.088,7.72-2.717,14.719Z" transform="translate(-107.081 -134.501)" fill-rule="evenodd"/>
      <path id="Контур_3994" data-name="Контур 3994" d="M320.81,488.671a203.858,203.858,0,0,1,6.227-26.09c2.012-6.4,2.943-7.261,4.47-7.947a15.343,15.343,0,0,1,5.733-1.235,16.846,16.846,0,0,1,5.762.978c1.629.576,2.839,1.288,4.851,8.019a193.975,193.975,0,0,1,5.942,29.783c1.117,10.3.538,18.166-2.366,26.325A82.364,82.364,0,0,1,340.4,538.79c-2.893,3.672-3.449,2.559-6.23-4.117s-7.788-18.914-10.714-26.809-3.771-11.446-2.648-19.193Z" transform="translate(-107.82 -152.607)" fill="#1d1d1b" fill-rule="evenodd"/>
      <path id="Контур_3995" data-name="Контур 3995" d="M467.153,397.013c-.028,1.224-.028,3.3-.13,4.435s-.306,1.333-4.156,4.45-11.344,9.152-15.131,12.466-3.866,3.906-3.648,4.715a6.182,6.182,0,0,0,1.574,2.675c.843.839,2.016,1.489,2.469,1.922s.187.649-.814.5a16.914,16.914,0,0,1-4.255-1.391,7.88,7.88,0,0,1-3.668-3.175,7.026,7.026,0,0,1-.257-6.173c.986-2.623,3.353-5.818,7.435-9.289a111.145,111.145,0,0,1,13.62-9.449c3.739-2.23,5.419-2.944,6.23-3.114s.757.2.729,1.429Z" transform="translate(-147.612 -133.135)" fill="#142f82" fill-rule="evenodd"/>
      <path id="Контур_3996" data-name="Контур 3996" d="M424.292,452.7c.026,1.061.026,3.048-.015,4.248s-.121,1.611-14.029,17.148-41.641,46.2-55.758,61.6-14.616,15.536-15,15.6-.658.068-.834-.638a11.54,11.54,0,0,1-.142-3.275c.113-1.157.42-2.058,6.2-8.95s17.029-19.776,31.153-35.319,31.122-33.747,39.651-42.814,8.589-9,8.644-8.9.107.235.132,1.3Z" transform="translate(-113.921 -151.929)" fill="#142f82" fill-rule="evenodd"/>
      <path id="Контур_3997" data-name="Контур 3997" d="M428.07,384.271c-4.328,3.175-12.57,9.315-16.775,12.966s-4.37,4.813-4.066,6.2,1.079,2.987,4.066,4.9,8.187,4.121,10.732,5.421,2.434,1.687.6,3.792-5.4,5.928-19.115,20.987-37.577,41.354-50.341,55.461-14.427,16.027-15.195,16.73-.64.192-.128-4.542,1.408-13.692,3.711-21.177,6.014-13.5,16.57-32.757,27.959-51.759,37.782-70.173,12.067-22.742,13.22-25.316,1.217-3.4.7-4.607a32.893,32.893,0,0,0-2.594-4.319c-.992-1.511-1.888-2.934-2.481-3.87s-.884-1.383,4.1,1.125,15.238,7.972,20.414,11.042,5.273,3.748,5.085,7.441-.66,10.4-1.1,13.861-.856,3.669-5.183,6.843Z" transform="translate(-113.574 -115.522)" fill="#3359cf" fill-rule="evenodd"/>
      <path id="Контур_3998" data-name="Контур 3998" d="M216.256,384.271c4.328,3.175,12.57,9.315,16.775,12.966s4.37,4.813,4.066,6.2-1.079,2.987-4.066,4.9-8.187,4.121-10.732,5.421-2.434,1.687-.6,3.792,5.4,5.928,19.115,20.987,37.577,41.354,50.341,55.461,14.427,16.027,15.195,16.73.64.192.128-4.542S305.073,492.486,302.77,485s-6.014-13.5-16.57-32.757-27.959-51.759-37.782-70.173-12.067-22.742-13.22-25.316-1.217-3.4-.7-4.607a32.89,32.89,0,0,1,2.594-4.319c.992-1.511,1.888-2.934,2.481-3.87s.884-1.383-4.1,1.125-15.238,7.972-20.414,11.042-5.273,3.748-5.085,7.441.66,10.4,1.1,13.861.856,3.669,5.183,6.843Z" transform="translate(-70.657 -115.522)" fill="#3359cf" fill-rule="evenodd"/>
      <g id="Сгруппировать_238" data-name="Сгруппировать 238" transform="translate(139.264 227.695)" clip-path="url(#clip-path-8)">
        <g id="_105553201041792" transform="translate(-5.68 -3.643)">
          <path id="_1-5" data-name="1" d="M223.187,395.133c7.555-1.564,21.395-5.735,28.315-8s6.92-2.63,5.627-9.438-3.88-20.061-6.552-28.3-5.431-11.455-10.445-11.659-12.284,2.606-18.618,5.486-11.734,5.829-15.206,9.641-5.014,8.486-4.946,14.7a51.147,51.147,0,0,0,3.97,18.741,17.851,17.851,0,0,0,7.011,7.941c2.019,1.407,3.29,2.45,10.845.886Z" transform="translate(-201.359 -337.725)" fill="#142f82" fill-rule="evenodd"/>
        </g>
      </g>
      <path id="Контур_4000" data-name="Контур 4000" d="M216.256,384.271c4.328,3.175,12.57,9.315,16.775,12.966s4.37,4.813,4.066,6.2-1.079,2.987-4.066,4.9-8.187,4.121-10.732,5.421-2.434,1.687-.6,3.792,5.4,5.928,19.115,20.987,37.577,41.354,50.341,55.461,14.427,16.027,15.195,16.73.64.192.128-4.542S305.073,492.486,302.77,485s-6.014-13.5-16.57-32.757-27.959-51.759-37.782-70.173-12.067-22.742-13.22-25.316-1.217-3.4-.7-4.607a32.89,32.89,0,0,1,2.594-4.319c.992-1.511,1.888-2.934,2.481-3.87s.884-1.383-4.1,1.125-15.238,7.972-20.414,11.042-5.273,3.748-5.085,7.441.66,10.4,1.1,13.861.856,3.669,5.183,6.843Z" transform="translate(-70.657 -115.522)" fill="none" fill-rule="evenodd"/>
      <path id="Контур_4001" data-name="Контур 4001" d="M509.086,446.622c-2.075-4.261-4.842-12.947-6.142-17.6s-1.134-5.256,3.569-8.106,13.944-7.94,23.71-13.169,20.058-10.6,25.452-13.418,5.893-3.1,6.612-2.518,1.66,2.019,3.873,6,5.7,10.513,7.414,13.916,1.66,3.68-8.576,9.628-30.653,17.567-41.554,23.46-12.284,6.059-14.358,1.8Z" transform="translate(-169.049 -131.796)" fill="#e6dfdf" fill-rule="evenodd"/>
      <g id="Сгруппировать_239" data-name="Сгруппировать 239" transform="translate(333.197 259.771)" clip-path="url(#clip-path-9)">
        <g id="_105553201070720" transform="translate(-11.117 8.147)">
          <path id="_1-6" data-name="1" d="M524.514,403.85c2.048.04,2.335.675,5.272,7.185s8.526,18.9,11.32,25.167,2.794,6.431-2.406,8.693-15.6,6.629-24.333,9.448-15.8,4.089-20.4.794-6.748-11.154-7.82-17.943-1.072-12.5,1.866-16.593,8.813-6.55,13.775-8.892,9.011-4.565,12.941-5.955a31.177,31.177,0,0,1,9.789-1.905Z" transform="translate(-485.488 -403.848)" fill="rgba(29,29,27,0.4)" fill-rule="evenodd"/>
        </g>
      </g>
      <path id="Контур_4003" data-name="Контур 4003" d="M509.086,446.622c-2.075-4.261-4.842-12.947-6.142-17.6s-1.134-5.256,3.569-8.106,13.944-7.94,23.71-13.169,20.058-10.6,25.452-13.418,5.893-3.1,6.612-2.518,1.66,2.019,3.873,6,5.7,10.513,7.414,13.916,1.66,3.68-8.576,9.628-30.653,17.567-41.554,23.46-12.284,6.059-14.358,1.8Z" transform="translate(-169.049 -131.796)" fill="none" fill-rule="evenodd"/>
      <path id="Контур_4004" data-name="Контур 4004" d="M149.991,448.117a142.989,142.989,0,0,0,3.874-16.143c.842-4.475.842-5.581.674-6.376s-.505-1.275-10.177-6.279-28.677-14.531-38.565-19.294-10.658-4.763-11.4-3.994-1.468,2.31-3.416,5.966-5.124,9.431-6.712,12.318-1.588,2.887,9.07,8.613,31.973,17.178,43.136,23,12.173,6.014,13.52,2.189Z" transform="translate(-28.106 -133.171)" fill="#e6dfdf" fill-rule="evenodd"/>
      <g id="Сгруппировать_240" data-name="Сгруппировать 240" transform="translate(55.397 262.482)" clip-path="url(#clip-path-10)">
        <g id="_105553202861632" transform="translate(-8.841 -2.646)">
          <path id="_1-7" data-name="1" d="M114.378,406.97c-2.209,5.281-6.282,15.153-8.422,20.089s-2.347,4.936-8.595,2.451-18.536-7.456-23.817-11.874-3.555-8.284-.242-12.6a60.5,60.5,0,0,1,11.667-11.46c3.452-2.382,5.454-2.382,10.6-.863a156.906,156.906,0,0,1,17.4,6.42C116.933,401,116.587,401.689,114.378,406.97Z" transform="translate(-70.178 -391.665)" fill="rgba(29,29,27,0.4)" fill-rule="evenodd"/>
        </g>
      </g>
      <path id="Контур_4006" data-name="Контур 4006" d="M149.991,448.117a142.989,142.989,0,0,0,3.874-16.143c.842-4.475.842-5.581.674-6.376s-.505-1.275-10.177-6.279-28.677-14.531-38.565-19.294-10.658-4.763-11.4-3.994-1.468,2.31-3.416,5.966-5.124,9.431-6.712,12.318-1.588,2.887,9.07,8.613,31.973,17.178,43.136,23,12.173,6.014,13.52,2.189Z" transform="translate(-28.106 -133.171)" fill="none" fill-rule="evenodd"/>
      <path id="Контур_4007" data-name="Контур 4007" d="M270.862,333.558c-7.214-7.128-8.016-7.257-8.926-6.972s-1.928.985-4.986,4.359-8.159,9.424-10.709,12.8-2.55,4.075,3.493,13.584,18.129,27.83,24.808,37.212,7.951,9.828,8.969,9.7,1.781-.827,6.552-5.693,13.549-13.9,17.875-18.574,4.2-4.993,3.022-6.107-3.4-3.022-11.33-11.039-21.553-22.143-28.768-29.271Z" transform="translate(-82.338 -109.898)" fill="#e6dfdf" fill-rule="evenodd"/>
      <g id="Сгруппировать_241" data-name="Сгруппировать 241" transform="translate(162.289 216.61)" clip-path="url(#clip-path-11)">
        <g id="_105553204402592" transform="translate(-0.424 -4.68)">
          <path id="_1-8" data-name="1" d="M295.67,349.182c1.118,2.017.526,2.6-5.2,8.258s-16.582,16.382-22.045,21.711-5.532,5.26-9.567-1.189-12.036-19.278-14.209-28.727,1.483-15.519,4.139-19.9,4.311-7.07,6.759-8.518A11.942,11.942,0,0,1,264,319.783c2.759.621,5.035,2.069,9.1,5.622s9.932,9.208,14.277,13.76,7.173,8,8.291,10.018Z" transform="translate(-243.989 -319.453)" fill="rgba(29,29,27,0.4)" fill-rule="evenodd"/>
        </g>
      </g>
      <path id="Контур_4009" data-name="Контур 4009" d="M270.862,333.558c-7.214-7.128-8.016-7.257-8.926-6.972s-1.928.985-4.986,4.359-8.159,9.424-10.709,12.8-2.55,4.075,3.493,13.584,18.129,27.83,24.808,37.212,7.951,9.828,8.969,9.7,1.781-.827,6.552-5.693,13.549-13.9,17.875-18.574,4.2-4.993,3.022-6.107-3.4-3.022-11.33-11.039-21.553-22.143-28.768-29.271Z" transform="translate(-82.338 -109.898)" fill="none" fill-rule="evenodd"/>
      <path id="Контур_4010" data-name="Контур 4010" d="M388.84,334.148c7.123-7.054,7.925-7.184,8.835-6.9s1.928.985,5.078,4.286,8.432,9.2,11.073,12.5,2.641,4-3.4,13.511-18.129,27.83-24.808,37.212-7.951,9.828-8.969,9.7-1.781-.827-6.552-5.693-13.549-13.9-17.875-18.574-4.2-4.993-3.021-6.107,3.4-3.021,11.238-10.965,21.28-21.923,28.4-28.977Z" transform="translate(-117.298 -110.121)" fill="#e6dfdf" fill-rule="evenodd"/>
      <path id="Контур_4011" data-name="Контур 4011" d="M9.992,492.194c9.047-14.537,25.9-42.352,34.591-56.16s9.2-13.61,11.62-12.461,6.747,3.249,18.678,9.262,31.466,15.94,41.329,21.094,10.054,5.536,7.144,18.45-8.92,38.359-12.441,51.229-4.551,13.164-21.183,13.164-48.866-.294-65.719-.883-18.325-1.472-20.017-5.961A77,77,0,0,1,.049,512.667c-.339-4.677.9-5.936,9.943-20.473Z" transform="translate(0 -142.406)" fill="#3359cf" fill-rule="evenodd"/>
      <g id="Сгруппировать_242" data-name="Сгруппировать 242" transform="translate(0 280.684)" clip-path="url(#clip-path-12)">
        <g id="_105553214290688" transform="translate(-38.506 -11.394)">
          <path id="_1-9" data-name="1" d="M65.676,441.783c-3.767,10.449-10.312,28.994-8.02,52.807s13.421,52.9,13.474,66.6-10.972,12.021-27.875,9.659S3.568,565.44-11.551,563.13s-22.573-3.885-28.557-8.872-10.5-13.387-14.016-20.9-6.037-14.154-1.365-31,16.536-43.917,28.3-61.02,23.413-24.242,33.912-28.966,19.843-7.034,28.452-6.321,16.484,4.45,22.4,8.385,9.884,8.068,11.372,11.311.5,5.6-3.27,16.045Z" transform="translate(58.042 -405.915)" fill="#142f82" fill-rule="evenodd"/>
        </g>
      </g>
      <path id="Контур_4013" data-name="Контур 4013" d="M9.992,492.194c9.047-14.537,25.9-42.352,34.591-56.16s9.2-13.61,11.62-12.461,6.747,3.249,18.678,9.262,31.466,15.94,41.329,21.094,10.054,5.536,7.144,18.45-8.92,38.359-12.441,51.229-4.551,13.164-21.183,13.164-48.866-.294-65.719-.883-18.325-1.472-20.017-5.961A77,77,0,0,1,.049,512.667c-.339-4.677.9-5.936,9.943-20.473Z" transform="translate(0 -142.406)" fill="none" fill-rule="evenodd"/>
      <path id="Контур_4014" data-name="Контур 4014" d="M526.97,523.624c-1.527-5.568-4.518-15.621-8.24-27.266s-8.176-24.88-10.276-31.815-1.845-7.572,5.122-11.517,20.648-11.2,32.9-17.53,23.066-11.74,28.634-14.285,5.886-2.227,14.953,17.371,26.884,58.477,35.824,78.329,9,20.68,6.013,20.807-9.035-.445-26.757-1.622-47.118-2.959-61.849-4.391-14.794-2.513-16.321-8.081Z" transform="translate(-170.75 -141.398)" fill="#3359cf" fill-rule="evenodd"/>
      <g id="Сгруппировать_243" data-name="Сгруппировать 243" transform="translate(336.55 278.696)" clip-path="url(#clip-path-13)">
        <g id="_105553214289376" transform="translate(-13.347 14.558)">
          <path id="_1-10" data-name="1" d="M538.766,456.151c5.32,12.988,14.877,36.561,23.727,51.7s16.994,21.847,34.8,31.108,45.271,21.079,56.847,27.625,7.266,7.825-6.068,7.345-35.689-2.715-60.281-7.745-51.418-12.855-68.265-24.192-23.713-26.188-27.705-39.841-5.11-26.108-4.471-33.534S490.384,458.8,498,454.595s20.447-10.219,27.4-12.026,8.043.6,13.363,13.583Z" transform="translate(-487.182 -442.039)" fill="#142f82" fill-rule="evenodd"/>
        </g>
      </g>
      <path id="Контур_4016" data-name="Контур 4016" d="M526.97,523.624c-1.527-5.568-4.518-15.621-8.24-27.266s-8.176-24.88-10.276-31.815-1.845-7.572,5.122-11.517,20.648-11.2,32.9-17.53,23.066-11.74,28.634-14.285,5.886-2.227,14.953,17.371,26.884,58.477,35.824,78.329,9,20.68,6.013,20.807-9.035-.445-26.757-1.622-47.118-2.959-61.849-4.391-14.794-2.513-16.321-8.081Z" transform="translate(-170.75 -141.398)" fill="none" fill-rule="evenodd"/>
      <path id="Контур_4017" data-name="Контур 4017" d="M315.964,261.448a75.536,75.536,0,0,1,6.4-4.99,27.14,27.14,0,0,1,6.852-3.5,3.949,3.949,0,0,1,3.758.418,29.871,29.871,0,0,1,2.565,2.3c.631.537.938.52,1.62-.034S338.9,254,339.777,253.3a3.233,3.233,0,0,1,2.592-.893c1.015.113,2.347.645,4.98,2.4s6.568,4.738,8.476,6.243,1.789,1.535.09,1.207a90.511,90.511,0,0,0-9.554-1.446,121.9,121.9,0,0,0-15.666-.387,98.3,98.3,0,0,0-12.38,1.312,17.051,17.051,0,0,0-3.515.858c-.268.095-.16-.016,1.164-1.145Z" transform="translate(-105.917 -84.948)" fill="rgba(29,29,27,0.4)" fill-rule="evenodd"/>
      <path id="Контур_4018" data-name="Контур 4018" d="M331.91,277.7a10.42,10.42,0,0,1,1.1,2.911,14.429,14.429,0,0,1,.235,3.049c-.01.637-.03.676.588.3a11.128,11.128,0,0,1,3.8-1.539,27.942,27.942,0,0,1,6.45-.245,13.794,13.794,0,0,1,4.4.824c1.274.49,2.608,1.255,3.107,1.422s.167-.265-.059-.912a4.887,4.887,0,0,1-.167-2.47,10.99,10.99,0,0,1,1.049-2.8c.4-.784.735-1.294.451-1.314a7.481,7.481,0,0,0-1.951.853,7.77,7.77,0,0,1-3.146.971,39.658,39.658,0,0,1-7.293.186,37.261,37.261,0,0,1-6.616-1.1,13.738,13.738,0,0,1-2.353-.784c-.2-.088.039.03.4.647Z" transform="translate(-111.557 -93.208)" fill="rgba(29,29,27,0.4)" fill-rule="evenodd"/>
    </g>
  </g>
</svg>
