<svg xmlns="http://www.w3.org/2000/svg" width="92" height="33.197" viewBox="0 0 92 33.197"><defs><style>.a{fill:#ff5833;}.a,.b,.d{fill-rule:evenodd;}.b{fill:#abc5ff;}.c{fill:#fff;}.d{fill:#f4f2f3;}</style></defs><g transform="translate(0 -0.014)"><path class="a" d="M1.8,912.427l4.506,1.64,4.506,1.64a3.592,3.592,0,0,1,1.806,3.274v15.692c0,1.442-.813,2.32-1.8,1.959l-4.507-1.641L1.8,933.351A3.577,3.577,0,0,1,0,930.082v-15.7c0-1.435.809-2.32,1.8-1.96Zm2.249.818L1.8,912.427c-.992-.361-1.8.524-1.8,1.96v-1.059a3.673,3.673,0,0,1,1.946-3.336l1.594-.58c-.724.263.636-.23.082-.029a8.413,8.413,0,0,0-1.222.5,1.527,1.527,0,0,0,.087,2.723,12.269,12.269,0,0,0,1.562.635Z" transform="translate(0 -903.503)"/><path class="b" d="M524.219,5.229,538.291.108c1.073-.39,1.954.473,1.954,1.919v15.73a3.666,3.666,0,0,1-1.952,3.332c-1.832.664-3.4,1.238-5.264,1.916,0-2.614-.044-5.768-.017-8.383a3.6,3.6,0,0,0-1.874-3.377l-4.33-1.576c-.512-.186-3.339-1.2-3.818-1.457a1.376,1.376,0,0,1,.073-2.561L524.3,5.2c.553-.2-.806.292-.082.029Z" transform="translate(-518.815 0)"/><path class="c" d="M4725.68,279V267.963h4.509a4.358,4.358,0,0,1,3.091,1.056,3.632,3.632,0,0,1,1.135,2.791,3.468,3.468,0,0,1-1.261,2.862,4.938,4.938,0,0,1-3.2,1.017h-1.845V279h-2.428Zm2.428-5.472h1.924a2,2,0,0,0,1.411-.473,1.6,1.6,0,0,0,.513-1.23,1.521,1.521,0,0,0-.521-1.238,2.2,2.2,0,0,0-1.451-.434h-1.876v3.374Zm10.092,5.629a3.12,3.12,0,0,1-2.074-.694,2.374,2.374,0,0,1-.828-1.924,2.346,2.346,0,0,1,.922-2.018,4.107,4.107,0,0,1,2.484-.678,6.309,6.309,0,0,1,2.065.347v-.142q0-1.545-1.813-1.545a6.8,6.8,0,0,0-2.334.457l-.6-1.829a8.078,8.078,0,0,1,3.28-.678,3.879,3.879,0,0,1,2.854.946,3.655,3.655,0,0,1,.915,2.7V279h-2.318v-.915a3.262,3.262,0,0,1-2.554,1.072Zm.725-1.656a2.1,2.1,0,0,0,1.356-.418,1.307,1.307,0,0,0,.521-1.064v-.426a3.586,3.586,0,0,0-1.529-.315,2.089,2.089,0,0,0-1.223.308,1.024,1.024,0,0,0-.434.891.891.891,0,0,0,.363.749A1.517,1.517,0,0,0,4738.925,277.5Zm7.916,4.068a4.134,4.134,0,0,1-2.129-.583l.8-1.734a2.017,2.017,0,0,0,1.025.331.88.88,0,0,0,.836-.552l-3.312-8.483h2.539l1.923,5.755,1.845-5.755h2.491l-3.248,8.657a4.474,4.474,0,0,1-1.1,1.837,2.478,2.478,0,0,1-1.671.528Zm28.689-3.658a4.82,4.82,0,0,1-6.528.008,4.387,4.387,0,0,1,.016-6.252,4.82,4.82,0,0,1,6.528-.008,4.388,4.388,0,0,1-.016,6.252Zm-3.24-.788a2.033,2.033,0,0,0,1.593-.67,2.4,2.4,0,0,0,.6-1.663,2.365,2.365,0,0,0-.623-1.648,2.064,2.064,0,0,0-1.6-.686,2.032,2.032,0,0,0-1.592.67,2.4,2.4,0,0,0-.6,1.664,2.367,2.367,0,0,0,.623,1.648A2.063,2.063,0,0,0,4772.29,277.124Zm11.321,2.034a3.3,3.3,0,0,1-2.634-1.261V279h-2.4V267.49h2.4v4.273a3.125,3.125,0,0,1,2.634-1.372,3.629,3.629,0,0,1,2.712,1.183,5.1,5.1,0,0,1,.008,6.41,3.633,3.633,0,0,1-2.72,1.175Zm-2.073-2.688a1.887,1.887,0,0,0,1.458.654,1.913,1.913,0,0,0,1.466-.654,2.436,2.436,0,0,0,.6-1.711,2.392,2.392,0,0,0-.6-1.679,1.913,1.913,0,0,0-1.466-.654,1.887,1.887,0,0,0-1.458.654,2.452,2.452,0,0,0-.592,1.711A2.408,2.408,0,0,0,4781.538,276.47ZM4754.188,279v-8.373h2.123v.925a3.243,3.243,0,0,1,1.049-.87,2.8,2.8,0,0,1,1.28-.292,2.885,2.885,0,0,1,1.356.3,2.653,2.653,0,0,1,.978.933,2.8,2.8,0,0,1,2.378-1.23,2.55,2.55,0,0,1,2.741,2.757V279h-2.208v-5.393a1.3,1.3,0,0,0-.328-.943,1.212,1.212,0,0,0-.912-.334,1.32,1.32,0,0,0-1.039.428,1.673,1.673,0,0,0-.386,1.167V279h-2.191v-5.377a1.338,1.338,0,0,0-.321-.954,1.167,1.167,0,0,0-.9-.339,1.316,1.316,0,0,0-1.036.431,1.718,1.718,0,0,0-.381,1.18V279h-2.207Z" transform="translate(-4695.458 -260.893)"/><path class="d" d="M383.644,2771.75a.406.406,0,0,0,.345-.337,6.649,6.649,0,0,0,.237-1.9,9.009,9.009,0,0,0-.68-3.246c-.095-.231-.283-.35-.42-.262a.505.505,0,0,0-.076.583,7.54,7.54,0,0,1,.572,2.721,5.689,5.689,0,0,1-.161,1.45l-2.771-4.1a.493.493,0,0,0-.424-.261c-.145.016-.256.143-.3.339a6.308,6.308,0,0,0-.136,1.339,6.94,6.94,0,0,0,.427,2.162c.091.234.276.358.416.279s.18-.336.091-.572a5.479,5.479,0,0,1-.329-1.649,5.547,5.547,0,0,1,.059-.819q1.342,1.989,2.69,3.979a.691.691,0,0,0,.315.272.345.345,0,0,0,.145.021Z" transform="translate(-377.401 -2748.274)"/><path class="d" d="M1098.3,2657.86a8.293,8.293,0,0,0,.912-3.931.043.043,0,0,1,0-.012,12.968,12.968,0,0,0-.911-4.594c-.093-.232-.281-.355-.419-.274a.5.5,0,0,0-.083.578,11.507,11.507,0,0,1,.81,4.076,7.369,7.369,0,0,1-.81,3.486.652.652,0,0,0,.083.639.377.377,0,0,0,.168.134.2.2,0,0,0,.251-.1Z" transform="translate(-1090.725 -2632.069)"/><path class="d" d="M1328.039,2561.255a.288.288,0,0,1-.052-.025.65.65,0,0,1-.246-.6,12.413,12.413,0,0,0,.093-1.458,15.212,15.212,0,0,0-1.024-5.307.482.482,0,0,1,.09-.572c.14-.079.327.046.418.28a17.081,17.081,0,0,1,.826,2.885,16.294,16.294,0,0,1,.3,2.93v.009a13.743,13.743,0,0,1-.1,1.6c-.025.2-.154.306-.3.254h0Z" transform="translate(-1318.277 -2536.931)"/><path class="d" d="M1327.458,3958.15a8.3,8.3,0,0,0,.6-1.435.677.677,0,0,0-.164-.631.22.22,0,0,0-.395.093,7.7,7.7,0,0,1-.545,1.313.648.648,0,0,0,.088.637.374.374,0,0,0,.164.131.2.2,0,0,0,.255-.106Z" transform="translate(-1318.416 -3930.682)"/></g></svg>